<svg version="1.1" id="圖層_1" xmlns="http://www.w3.org/2000/svg" x="0" y="0" viewBox="0 0 731 220.2" xml:space="preserve"><style>.st0,.st1{fill:#c41b6f}.st1{fill-rule:evenodd;clip-rule:evenodd}</style><path class="st0" d="M23.3 184H12.9v-7.2h29.5v7.2H32v27.5h-8.7V184zm46.6 27.5l-2.3-6.8H54.8l-2.2 6.8h-9l13-34.7H66l13.1 34.7h-9.2zM65.3 198l-4.2-12.7H61L56.9 198h8.4zm17.4-21.2h8.7v34.7h-8.7v-34.7zm45.8 23.8c-1.5 5.9-5.1 11.5-14.7 11.5-12.3 0-16.6-9-16.6-17.8 0-12.5 7.7-18 16.5-18 7.9 0 12.6 3.6 14.6 10.5l-8 1.9c-.4-1.3-1.7-5.3-6.6-5.3-7.4 0-7.7 8.3-7.7 10.9 0 3 .1 11 7.5 11 5.5 0 6.7-5.1 7.1-7l7.9 2.3zm5.6-23.8h8.7v12.9h12.5v-12.9h8.7v34.7h-8.7v-14.6h-12.5v14.6h-8.7v-34.7zm45.8 0v20c0 3.1 0 8.2 6.4 8.2 6.1 0 6.1-4.9 6.1-8v-20.2h8.7v19.4c0 5.1 0 15.8-14.3 15.8-5.3 0-10.6-.7-13.8-6.1-1.8-3.1-1.8-8.3-1.8-9.6v-19.6h8.7zm28.4 0h8.2l13.3 21.2h.1v-21.2h8.1v34.7h-8.4l-13.1-20.8h-.1v20.8h-8.1v-34.7zm53.2 15.5H277v14.3c-2.4 1.9-7.1 5.5-15.6 5.5-12 0-17.6-7.8-17.6-17.9 0-5.5 1.9-11 6.1-14.4 3.6-2.9 7.3-3.5 11.8-3.5 4.2 0 12.7.3 14.9 10l-8.4 1.6c-.6-1.5-1.8-4.7-6.8-4.7-7.7 0-8.7 7-8.7 10.6 0 5.9 1.8 11.6 8.8 11.6 3.4 0 5.5-1.3 7.5-2.6V199h-7.5v-6.7zm36.5-15.5h14c4.8 0 7.8.2 10.4 2.6 1.6 1.4 3.1 3.7 3.1 8 0 1.7-.1 6.9-5.2 9.6-2.7 1.5-6.5 1.4-8.4 1.4h-5.1v13H298v-34.6zm8.7 15.3h3.2c2.3 0 6.9 0 6.9-4.4 0-1.1-.4-2.3-1.3-3.1-1-1-2.1-1.3-5.6-1.3h-3.2v8.8zm33.2-15.3v20c0 3.1 0 8.2 6.4 8.2 6.1 0 6.1-4.9 6.1-8v-20.2h8.7v19.4c0 5.1 0 15.8-14.3 15.8-5.3 0-10.6-.7-13.8-6.1-1.8-3.1-1.8-8.3-1.8-9.6v-19.6h8.7zm28.3 0h16c3.2 0 7.2 0 9.8 2.7 1.5 1.6 2.5 3.7 2.5 6 0 2.7-1.1 5.9-5.2 7.5v.1c1.4.3 6.8 1.8 6.8 8.4 0 4.3-2.5 7.7-5.9 9.1-2.4.9-6.1.9-9.2.9h-14.8v-34.7zm8.7 13.7h4.6c3 0 6.6 0 6.6-3.7 0-3.6-3.4-3.5-6.8-3.5H377v7.2zm0 14.4h5.8c2.7 0 6.6 0 6.6-4.1s-4.1-4.1-6.9-4.1h-5.5v8.2zm26.8-28.1h8.7v27.5h16.7v7.2h-25.4v-34.7zm30.3 0h8.7v34.7H434v-34.7zm45.8 23.8c-1.5 5.9-5.1 11.5-14.7 11.5-12.3 0-16.6-9-16.6-17.8 0-12.5 7.7-18 16.5-18 7.9 0 12.6 3.6 14.6 10.5l-8 1.9c-.4-1.3-1.7-5.3-6.6-5.3-7.4 0-7.7 8.3-7.7 10.9 0 3 .1 11 7.5 11 5.5 0 6.7-5.1 7.1-7l7.9 2.3zm20.1-23.8h8.7v27.5h16.7v7.2h-25.4v-34.7zm30.3 0h8.7v34.7h-8.7v-34.7zm15.8 0h16c3.2 0 7.2 0 9.8 2.7 1.5 1.6 2.5 3.7 2.5 6 0 2.7-1.1 5.9-5.2 7.5v.1c1.4.3 6.8 1.8 6.8 8.4 0 4.3-2.5 7.7-5.9 9.1-2.4.9-6.1.9-9.2.9H546v-34.7zm8.6 13.7h4.6c3 0 6.6 0 6.6-3.7 0-3.6-3.4-3.5-6.8-3.5h-4.3v7.2zm0 14.4h5.8c2.7 0 6.6 0 6.6-4.1s-4.1-4.1-6.9-4.1h-5.5v8.2zm27-28.1h15.9c2.3 0 5.4 0 7.8 1 4.2 1.6 5.5 5.7 5.5 8.7 0 7.9-6.9 9.4-8.6 9.6v.1c1.5.7 4 2 6.7 6.8l4.6 8.4h-10l-5.3-9.1c-2.8-4.8-4-5.2-6.8-5.2h-1.1v14.2h-8.7v-34.5zm8.6 14.4h4.7c3.1 0 7-.1 7-4s-3.6-3.9-6.7-3.9h-5v7.9zm49.7 20.3l-2.3-6.8h-12.8l-2.2 6.8h-9l13-34.7h9.4l13.1 34.7h-9.2zm-4.5-13.5l-4.2-12.7h-.1L627 198h8.4zm17.4-21.2h15.9c2.3 0 5.4 0 7.8 1 4.2 1.6 5.5 5.7 5.5 8.7 0 7.9-6.9 9.4-8.6 9.6v.1c1.5.7 4 2 6.7 6.8l4.6 8.4h-10l-5.3-9.1c-2.8-4.8-4-5.2-6.8-5.2h-1.1v14.2h-8.7v-34.5zm8.7 14.4h4.7c3.1 0 7-.1 7-4s-3.6-3.9-6.7-3.9h-5v7.9zm36 5.7l-12.8-20.1h9.8l7.4 12.7 7.4-12.7h9.8L706.2 197v14.5h-8.7v-14.6z"/><path class="st1" d="M644.4 50.9c0 .8-.1 1.5-.3 2.3-.2.8-.5 1.5-.8 2.2-.3.7-.6 1.4-1 2.1-.3.7-.6 1.4-.8 2-.2.6-.5 1.2-.9 1.9-.3.6-.7 1.3-1.1 2-.4.7-.7 1.4-.9 2-.3.7-.4 1.3-.4 2-.5.3-.9.9-1.1 1.6-.2.7-.4 1.5-.5 2.3-.1.8-.3 1.6-.5 2.4-.2.7-.5 1.4-1 1.8-.3.3-.6.7-1 1.3-.4.6-.8 1.3-1.2 2.1-.4.7-.7 1.5-1 2.2-.3.7-.4 1.3-.4 1.6 2.2 0 4.2-.3 6.1-.7 1.9-.4 3.6-1 5.4-1.6 1.7-.6 3.4-1.3 5-1.9 1.7-.6 3.3-1.2 5.1-1.6.4-.1 1-.2 1.6-.4.6-.1 1.3-.3 2-.4.7-.1 1.4-.1 1.9 0 .6.1 1.1.3 1.4.7.4.3.6.8.6 1.4.1.6 0 1.3-.1 2.1s-.3 1.5-.5 2.2c-.2.7-.3 1.3-.4 1.7-.2 1.5-.4 2.9-.7 4.2-.2 1.4-.5 2.7-.7 4-.2 1.3-.5 2.6-.7 4-.2 1.4-.4 2.8-.5 4.4 0 .4 0 .9-.1 1.5 0 .6-.1 1.3-.2 2s-.2 1.3-.4 1.9c-.2.5-.4.9-.7 1.1 0 .4-.2.8-.6 1.1-.4.3-.8.5-1.3.7-.5.1-1.1.2-1.6.2-.5-.1-1-.2-1.3-.5-.2-.2-.6-.3-1.1-.5-.5-.1-1.1-.3-1.7-.3-.6-.1-1.2-.1-1.7 0s-.9.2-1.1.5c0-.1-.2 0-.7.1-.4.1-1 .4-1.6.6-.6.2-1.2.5-1.6.7-.4.2-.7.3-.6.3-.5 0-.8.3-1.1.7-.3.4-.4 1-.5 1.5-.1.6-.1 1.2-.1 1.8v1.4c0 .3 0 .6-.1 1v1.2c.1.4.2.7.4.8.3.2.6.2 1.1-.1.5-.2 1-.5 1.5-.7.5-.3 1-.6 1.6-.9.5-.3 1-.7 1.5-1 .5-.3.9-.7 1.3-1 .4-.4.9-.7 1.3-1 .4-.3.9-.6 1.4-.9.5-.3.9-.6 1.4-.9.5-.3.9-.7 1.3-1 .2-.2.8-.6 1.4-1 .7-.4 1.5-.9 2.4-1.3.9-.4 1.8-.7 2.6-.7.8-.1 1.5.1 2.1.6.3.3 0 1.2-.6 2.3-.7 1.1-1.7 2.6-2.8 4-1.1 1.4-2.3 2.8-3.3 4-1 1.1-1.7 2-2 2.2-.5.4-.8.9-1.2 1.4-.4.5-.7 1.1-1 1.6-.3.6-.6 1.1-1 1.6s-.8 1-1.2 1.4c-.4.4-.8.7-1.2 1.1-.4.4-.8.7-1.3 1-.4.3-.9.7-1.3 1-.4.3-.8.7-1.2 1.1-.6.5-1.2.9-1.9 1.2-.6.2-1.3.3-2 .3-.7-.1-1.3-.2-2-.5-.6-.3-1.3-.7-1.8-1.3-.2-.2-.6-.5-1.1-1l-1.4-1.4c-.5-.5-.9-1-1.2-1.5-.3-.5-.5-.9-.6-1.2 0-.7 0-1.3.1-1.9.1-.6.3-1.2.5-1.7.2-.6.4-1.1.5-1.6.1-.6.2-1.1.2-1.7v-1.2c0-.5.1-1 .2-1.5s.2-1 .3-1.4c.1-.4.3-.8.4-1 .3-.4.5-.9.6-1.5l.3-1.8c.1-.6.1-1.3.2-1.9.1-.6.1-1.2.3-1.7.3-.8.4-1.7.5-2.7.1-1 .1-2 .1-3s-.1-2-.3-3c-.1-.9-.3-1.8-.6-2.6-.1-.4-.3-1.2-.6-2.1-.2-.9-.6-1.9-.9-2.8-.4-.9-.8-1.6-1.3-2-.5-.4-1.1-.4-1.8.2-.4.4-.8.8-1.1 1.2-.3.4-.6.9-.9 1.3-.3.5-.6.9-.9 1.4-.3.5-.6 1-.9 1.4-.4.5-.7 1.1-1 1.6l-.9 1.8c-.3.6-.5 1.2-.8 1.8-.3.6-.5 1.2-.8 1.8-.2.4-.4.9-.7 1.5-.3.6-.7 1.3-1.1 1.9-.4.6-.8 1.3-1.2 1.8-.4.5-.8.9-1.2 1.1-.7.9-1.3 1.9-2 2.9s-1.5 2-2.2 2.9c-.8.9-1.6 1.8-2.5 2.6-.9.8-1.8 1.5-2.8 2.1-.3.4-.7.8-1.2 1.1-.5.3-1 .6-1.6.8-.6.3-1.1.5-1.6.8-.5.3-1 .6-1.4.9-.3.3-.7.4-1.2.5-.5.1-1 .1-1.5.1s-1.1.1-1.5.1c-.5.1-.9.2-1.2.5-.3.2-.6.3-.9.3-.3 0-.7-.1-1-.3-.3-.2-.5-.4-.6-.6-.1-.2 0-.4.3-.6.2-.1.3-.2.4-.3.1-.1.3-.2.4-.3l.3-.3c.1-.1.2-.2.4-.3.4-.4.8-.9 1.2-1.4l1.2-1.8c.4-.6.8-1.2 1.2-1.7.4-.5.9-.9 1.4-1.2.3-.4.6-.9.9-1.5.3-.6.6-1.2 1-1.8.3-.6.7-1.2 1.1-1.7.4-.5.8-.9 1.3-1.2.2-.5.4-1.1.7-1.8.3-.7.7-1.4 1.1-2.1.4-.7.9-1.4 1.3-2 .5-.6.9-1 1.3-1.3.5-.3.9-.8 1.3-1.3s.7-1.1 1-1.7c.3-.6.6-1.2 1-1.8.3-.6.7-1.1 1.1-1.4.5-.4.8-1 1.1-1.6.3-.6.5-1.3.8-1.9.2-.7.5-1.3.8-1.9.3-.6.7-1.1 1.1-1.6.5-.5.9-1.1 1.2-1.7.3-.7.5-1.4.7-2.1.2-.7.4-1.5.7-2.1.3-.7.7-1.3 1.2-1.7.5-.4.9-1 1.2-1.6.3-.6.5-1.3.8-2 .2-.7.5-1.3.8-2 .3-.6.6-1.2 1.1-1.6.5-.5.8-1.1 1.1-1.9l.6-2.4c.2-.8.3-1.6.6-2.4.3-.7.6-1.3 1.2-1.8.4-.3.6-.7.7-1.3.1-.5.1-1.1.1-1.8 0-.6 0-1.2.1-1.8.1-.6.3-1 .6-1.3.2-.2.4-.6.6-1 .2-.5.4-1.1.5-1.6.1-.6.3-1.2.3-1.7.1-.5.1-1 .1-1.2 0-.8.1-1.5.2-2.3.1-.7.2-1.5.3-2.3.1-.8.2-1.5.2-2.4 0-.8 0-1.7-.2-2.6-.1-.5-.2-.9-.4-1.3s-.3-.8-.5-1.2c-.2-.4-.4-.7-.5-1.1-.2-.3-.3-.7-.3-1-.1-.3-.1-.6 0-1 .1-.3.2-.7.3-1 .2-.3.4-.7.6-.9.2-.3.4-.5.6-.7.1-.1.4-.3.8-.6s.9-.5 1.4-.8c.5-.2 1.1-.4 1.5-.5.5 0 .9.1 1.1.4.1.2.4.3.8.5.4.1.9.3 1.3.4.5.1.9.3 1.2.5.3.2.5.4.5.7.2.1.4.3.6.5.2.2.4.4.6.7.2.2.4.5.5.7.2.2.3.4.4.6.2.3.4.6.5.9.2.3.3.6.5.9.1.3.3.6.4.9.2.3.3.6.5.8.2.3.5.5.8.6.3.2.6.3 1 .4.3.1.7.2 1 .4.3.1.6.3.9.5.6.6 1.5.9 2.6 1.2 1 .3 2.3.4 3.5.6 1.2.1 2.5.2 3.6.4 1.2.1 2.2.3 3 .7.5.2.9.4 1.3.6.3.2.6.4.9.7.3.2.5.5.7.8.2.3.5.7.8 1 .4.4.4.9.3 1.2-.1.4-.5.7-.9 1-.4.3-.9.6-1.4.9-.4.3-.8.5-1.1.7-.3.3-.8.4-1.5.4s-1.5 0-2.4-.1c-.8-.1-1.7-.2-2.3-.3-.7-.1-1.2-.2-1.4-.2-.3 0-.6-.1-1-.1-.3-.1-.7-.1-1-.2-.3-.1-.7-.2-1-.3l-.9-.3c-.6-.1-1.1-.3-1.7-.5-.6-.2-1.1-.4-1.6-.6-.5-.2-1.1-.4-1.6-.5 0 .3-.6.2-1.1.2 0 .1 0 .1 0 0 .1 0 .1 0 0 0zm-2.9 41c.4 0 1.1-.1 1.8-.3.7-.2 1.5-.4 2.2-.7.8-.3 1.5-.6 2.1-.9.6-.3 1.1-.6 1.4-.9.2-.2.5-.3.7-.4l.9-.3c.3-.1.6-.2.8-.3.3-.1.5-.3.7-.5.1-.1.2-.4.4-.9.2-.4.4-1 .6-1.6.2-.6.4-1.2.4-1.7.1-.5 0-.9-.1-1.1-.2-.1-.9-.1-1.8.1-1 .2-2.2.4-3.3.7-1.2.3-2.4.6-3.3.9-.9.3-1.5.5-1.6.5-.2.2-.3.2-.5.3-.2 0-.3 0-.4.1-.1 0-.3.1-.4.2-.1.1-.2.3-.3.6-.2.1-.4.3-.4.5-.1.2-.1.4-.1.7 0 .2 0 .5-.1.7-.1.2-.1.5-.3.7-.1.1-.1.4-.1.7 0 .4 0 .8.1 1.2.1.4.2.9.3 1.2.1.3.2.5.3.5 0 0-.1 0 0 0-.1 0-.1 0 0 0zm10 4.7c-.1.1-.5.2-1 .3-.5.1-1.1.2-1.8.3-.7.1-1.3.2-1.9.2-.6.1-1 .1-1.3.1-.2 0-.4 0-.8.1-.3 0-.6.1-1 .1-.3.1-.7.1-1 .2-.3.1-.6.1-.8.2-.3 0-.5.3-.6.6-.1.4-.2.9-.3 1.5-.1.5-.1 1.1-.1 1.6v1.1h1.5c.8 0 1.7 0 2.6-.1.9-.1 1.8-.1 2.5-.3.7-.1 1.1-.3 1.1-.5 0-.3.1-.7.3-1.2.2-.5.4-1 .7-1.6l.9-1.5c.5-.5.8-.9 1-1.1zm25.2-45c0-.7 0-1.3.1-1.7 0-.4.1-.7.2-.9.1-.2.3-.4.5-.6.2-.2.5-.5.9-.8.4-.3 1-.6 1.7-.7.7-.1 1.5-.2 2.3-.2.8 0 1.7 0 2.5.1s1.5.2 2.1.3c.5.1 1.1.3 1.7.6.6.3 1.3.8 2 1.2.6.5 1.2 1 1.6 1.5.4.5.7 1.1.7 1.5 0 .4-.2.9-.6 1.5-.3.6-.8 1.2-1.3 1.7-.5.6-1.1 1.1-1.6 1.5-.5.4-1.1.7-1.4.8-.3.1-.8 0-1.4-.3-.6-.3-1.3-.7-2-1.1-.7-.4-1.4-.9-1.9-1.3-.6-.4-1-.8-1.2-1-.2-.3-.5-.5-.9-.8-.4-.3-.8-.5-1.3-.7-.5-.2-.9-.4-1.4-.5-.5 0-.9-.1-1.3-.1 0 0 0-.1 0 0 0-.1 0-.1 0 0 .1-.1.1 0 0 0z"/><path class="st1" d="M721.6 67c-.6 0-1.2.2-1.9.5-.6.3-1.3.7-1.9 1.1-.6.4-1.3.8-1.9 1.1-.6.3-1.2.5-1.7.5-.4 0-.9.2-1.4.5-.5.3-1.1.6-1.6 1-.6.4-1.1.8-1.6 1.2-.5.4-1 .7-1.4.8-.5.2-1 .5-1.5.8-.5.3-1 .6-1.5 1s-.9.7-1.4 1.1c-.5.4-.9.7-1.3 1-1 1.1-1.6 1.2-1.8.8-.2-.4-.1-1.4.1-2.5s.5-2.2.8-2.9c.3-.7.4-1.1.4-.5.4-.5.7-1.2 1-1.8.3-.6.5-1.3.8-1.9.3-.7.5-1.3.9-1.9.3-.6.7-1.1 1.2-1.6.2-.2.4-.4.6-.7.2-.3.4-.5.6-.8.2-.3.3-.6.5-.9.2-.3.3-.5.5-.8.3-.6.5-1 .6-1.3.1-.3 0-.5-.2-.6-.2-.1-.5-.1-.9 0s-.9.2-1.4.3c-.7.2-1.5.4-2.3.7l-2.4.9c-.8.3-1.6.6-2.4.8-.8.2-1.5.4-2.2.4-.5 0-1.2.2-1.9.4s-1.5.5-2.3.8c-.8.3-1.6.6-2.2 1-.7.3-1.3.6-1.7.9-.6.4-1.2.7-1.9 1-.6.3-1.3.6-2 .9-.7.3-1.3.6-2 .9-.7.3-1.3.6-2 .9-.3.1-.6.3-.9.4-.3.2-.6.3-1 .5-.3.2-.6.3-.9.5-.3.1-.6.3-.9.4-.5.2-.9.6-1.2 1-.3.5-.5 1-.6 1.6-.1.6-.2 1.3-.2 2v2.1c-.5.3-.9.8-1.3 1.3-.3.5-.6 1.2-.9 1.8-.3.6-.6 1.3-.9 1.8-.3.6-.7 1.1-1.2 1.4-.8.6-1.5.8-2.1.8-.6-.1-1.1-.4-1.6-.8s-.9-.9-1.3-1.4c-.4-.5-.8-.9-1.3-1.2-.7-.4-1.2-1.1-1.5-1.8-.3-.8-.4-1.7-.4-2.5 0-.9.3-1.8.6-2.6s.8-1.5 1.3-2c.4-.4.8-.8 1.2-1.3.4-.5.7-1 1.1-1.5.4-.5.7-1.1 1-1.6.3-.5.6-1.1.9-1.5.1-.2.4-.4.7-.6.3-.2.7-.4 1.2-.4.4-.1.9-.1 1.3-.1.4.1.8.3 1.1.6.3.4.7.6 1 .6.3 0 .6 0 .9-.2.3-.1.6-.3.9-.5.3-.2.6-.3.9-.3.6 0 1.2-.2 1.8-.4.6-.3 1.3-.6 1.9-.9.6-.3 1.3-.7 1.9-1 .6-.3 1.3-.6 1.9-.7.8-.2 1.7-.4 2.5-.6.8-.2 1.7-.5 2.5-.8l2.4-.9c.8-.3 1.5-.6 2.2-.9.2-.1.6-.2 1-.3.4-.1.8-.2 1.3-.3.4-.1.9-.3 1.2-.4.4-.2.6-.3.8-.5.2-.3.5-.5.9-.6.4-.1.8-.2 1.3-.2.5-.1.9-.1 1.3-.2s.8-.2 1.1-.5c.5-.4 1.1-.9 1.9-1.4.8-.5 1.6-.9 2.5-1.2.9-.3 1.9-.5 2.8-.5 1 0 1.9.2 2.8.8.5.3 1 .6 1.6.9.6.3 1.2.7 1.8 1 .6.4 1.2.7 1.7 1.1.5.4.9.8 1.2 1.2.2.3.5.5.7.8.3.2.5.5.8.7.3.3.5.5.7.8.2.3.4.6.4 1 .5.3.7.6.8 1 .1.4 0 .8-.2 1.2-.1.4-.4.8-.5 1.2-.1.3-.2.7-.2 1-.1 0-.1 0 0 0zm-64.7-1.9c0 1.1-.2 1.9-.7 2.6-.4.6-1.1 1-1.8 1.3-.8.3-1.7.4-2.8.5-1.1.1-2.3.1-3.6.1-.4 0-.9.1-1.3.1-.5.1-.9.1-1.3.1s-.8 0-1.2-.1c-.4-.1-.7-.3-.9-.7-.3-.2-.6-.3-.9-.4-.3-.1-.6-.2-.8-.2-.3-.1-.6-.1-.8-.1-.3-.1-.6-.1-.9-.3-.8-.3-1-.7-.7-1 .2-.3.9-.6 1.7-.8.8-.3 1.7-.5 2.4-.7.7-.2 1.3-.4 1.5-.5.2-.2.7-.4 1.2-.5.5-.1 1.2-.2 1.9-.3.7-.1 1.4-.1 2-.1h1.7c.6 0 1.2.1 1.7.2s1.1.2 1.5.4c.5.1.9.3 1.3.4.1-.1.5 0 .8 0 0 .1 0 .1 0 0z"/><path class="st1" d="M700.2 84l-.6.6-.6.6c-.2.2-.4.3-.6.5-.2.2-.4.4-.7.6-.3.2-.4.4-.6.7-.2.2-.4.5-.5.8-.2.3-.3.5-.5.8-.2.3-.4.5-.6.7-.5.5-1 1.2-1.3 2-.3.8-.6 1.7-.7 2.7-.1.9-.1 1.8 0 2.6s.4 1.4.9 1.9c1 .9 1.1 1.6.6 2.2-.5.6-1.5 1-2.8 1.3-1.2.3-2.6.6-3.8.8-1.2.2-2.1.4-2.4.6-.3.2-.7.4-1.1.5-.4.2-.9.3-1.3.4-.5.1-.9.2-1.3.3l-1.2.3c-.1 0-.3.1-.5.2s-.3.1-.5.2-.3.1-.5.2c-.1.1-.3.2-.4.3-.2.1-.2.4-.2.6 0 .3 0 .5.1.8.1.3.1.5.1.7 0 .2 0 .4-.2.5-.1.1-.1.2-.2.4v.6c0 .2.1.4.1.6.1.2.1.4.2.5.7-.2 1.4-.4 2.2-.6.8-.2 1.5-.4 2.3-.6.7-.2 1.4-.5 2-.8.6-.3 1.1-.7 1.5-1.2.1-.1.3-.4.4-.6l.6-.9c.2-.3.4-.6.6-.8l.5-.5c.4-.3.9-.4 1.4-.4.5 0 1 .1 1.6.2.6.1 1.1.3 1.6.5s1 .3 1.5.3c.7.1 1.4.3 2.1.5.7.3 1.5.6 2.2.9.7.3 1.4.7 2.1 1 .6.4 1.2.7 1.7 1 .7.4.9 1 .9 1.8 0 .7-.3 1.6-.7 2.4-.4.8-.9 1.6-1.4 2.3-.5.7-.9 1.2-1.2 1.4-.3.3-.7.6-1.1 1l-1.2 1.2c-.4.4-.8.9-1.1 1.3-.3.4-.6.8-.7 1.2 2.3-.1 4 .2 5.2.8 1.2.6 1.8 1.4 2.1 2.3.3.9.3 1.9 0 2.7-.3.9-.7 1.6-1.2 2-.2.2-.7.4-1.4.5-.6.1-1.4.2-2.2.3-.8.1-1.6.1-2.3.2-.7 0-1.3.1-1.6.1-.7.1-1.4.1-2.1.2-.8.1-1.6.1-2.5.2-.9 0-1.8.1-2.7.1h-2.8c-.3 0-.6-.1-.9-.2-.3-.1-.6-.3-.9-.5-.3-.2-.5-.4-.8-.6-.2-.2-.4-.4-.6-.5-.4-.4-.6-.7-.7-1.1-.1-.4-.1-.8 0-1.2.1-.4.2-.8.3-1.3.1-.4.2-.9.3-1.3 0-.3.3-.7.7-1.1.4-.4.9-.8 1.5-1.3.6-.4 1.2-.8 1.7-1.2.5-.3.9-.6 1.2-.9.2-.2.4-.4.6-.7.2-.2.4-.5.5-.7.2-.2.4-.5.5-.7.2-.2.4-.5.6-.7l.3-.3c.1-.1.2-.2.3-.4.1-.1.2-.3.3-.4l.3-.3c0-.1.1-.2.2-.4s.1-.4.1-.7v-.5c0-.1-.1-.1-.3 0-.2.2-.8.4-1.5.6-.7.2-1.6.3-2.6.4-.9.1-1.9.2-2.7.2-.8 0-1.5.1-1.9.1-.8 0-1.2.2-1.6.6-.3.4-.5.9-.6 1.5-.1.6-.1 1.3-.1 1.9 0 .7-.1 1.3-.2 1.9-.2.8-.2 1.9 0 3.2.1 1.3.4 2.8.6 4.2.2 1.4.4 2.8.4 4 0 1.1-.2 2.1-.7 2.5-.3.2-.4.5-.6.8l-.3.9c-.1.3-.2.6-.4.9-.2.3-.4.5-.8.7-.6.8-1.2 1-1.8.9-.6-.1-1.2-.6-1.8-1.2-.6-.6-1.1-1.3-1.5-2-.4-.6-.8-1.2-1-1.4-.3-.3-.8-.7-1.3-1.1-.5-.4-1.1-.9-1.6-1.4-.5-.5-.8-1.1-.9-1.6-.1-.6.1-1.1.7-1.6.3-.2.5-.5.7-.9.2-.3.4-.7.5-1.1.2-.4.3-.8.4-1.2.1-.4.2-.8.3-1.1.1-.4.1-1.1.1-1.9v-2.7c0-.9.1-1.8.2-2.6s.3-1.3.6-1.6c.3-.3.5-.8.7-1.6.2-.7.3-1.6.3-2.5.1-.9.1-1.8.1-2.6v-2c.4-.3.6-.8.6-1.6.1-.7 0-1.6 0-2.5-.1-.9-.1-1.8-.1-2.5.1-.7.2-1.3.6-1.5.1-.6.1-1.1.2-1.7.1-.6.1-1.1.3-1.7.1-.5.3-1 .5-1.5s.5-.8.8-1.2c.7-.6 1.2-.7 1.5-.5.3.2.5.7.7 1.3.1.6.1 1.3.2 2v1.5c0 .8 0 1.5.1 2 0 .5.1.9.3 1.2.2.3.4.4.8.5.4.1.9 0 1.6-.1.2-.2.3-.4.5-.6.2-.2.4-.3.6-.5.2-.2.4-.3.6-.5.2-.2.4-.4.5-.6.5-.6.8-1.5 1.1-2.5.3-1 .6-2.1.8-3.3.2-1.1.4-2.3.4-3.4.1-1.1.1-2.1.1-3-.6 0-1.3.3-2.2.6-.9.3-1.8.8-2.8 1.2-.9.4-1.9.7-2.7.9-.8.1-1.5 0-2-.4-.4-.3-.4-.9-.1-1.4.3-.6.8-1.2 1.3-1.9.6-.6 1.2-1.3 1.7-1.8s1-.9 1.1-1.1c.4-.4.8-.8 1.3-1.1l1.5-.9 1.5-.9c.5-.3.9-.7 1.4-1 .6-.5 1.6-.8 2.7-1 1.1-.1 2.4-.1 3.7 0 1.3.1 2.5.4 3.6.7 1.1.3 1.9.7 2.4 1.1.1.1.4.4.8.7.4.4.8.8 1.2 1.3.4.5.7.9.9 1.3.2 1.2.2 1.5-.1 1.7z"/><path class="st0" d="M589 56.1c-.1 0-.2-.1-.3-.1-.1 0-.2-.1-.3-.1-.1 0-.2-.1-.3-.1-.1 0-.2-.1-.3-.1-.1 0-.2-.1-.3-.1-.1 0-.2-.1-.3-.1-.1 0-.2 0-.3-.1h-1.4c-.1 0-.2 0-.3.1-.1 0-.2.1-.2.1h-2.3c-.1 0-.1 0-.2.1 0 0-.1 0-.2.1-.1 0-.1 0-.2.1-.1 0-.1 0-.2.1-.1 0-.1 0-.2.1-.1 0-.1 0-.2.1h-.2c-.1 0-.2.1-.3.1-.1 0-.2.1-.3.1-.1 0-.2.1-.3.1-.1 0-.2.1-.3.1-.1 0-.2.1-.3.1-.1 0-.2.1-.3.1-.1 0-.2.1-.3.1-.1 0-.2 0-.3.1h-1.2c-.1 0-.2 0-.3-.1-.1 0-.2-.1-.3-.1-.1 0-.2-.1-.2-.1-.1 0-.2-.1-.2-.1-.1-.1-.1-.2-.2-.3 0-.1-.1-.2-.2-.3 0-.1-.1-.2-.2-.3-.1-.1-.1-.2-.2-.3-.1-.1-.1-.2-.2-.3-.1-.1-.1-.2-.2-.3-.1-.1-.1-.2-.2-.3-.1-.1-.1-.2-.2-.3-.1-.1-.1-.2-.2-.3-.1-.1-.1-.2-.2-.3-.1-.1-.1-.2-.2-.3-.1-.1-.1-.2-.2-.3-.1-.1-.1-.2-.2-.3-.1-.1-.1-.2-.2-.3-.1-.1-.1-.2-.2-.3-.1-.1-.1-.2-.2-.3-.2-.2-.4-.3-.6-.5-.2-.2-.4-.3-.6-.5-.2-.1-.4-.3-.6-.4-.2-.1-.4-.3-.6-.4-.2-.1-.4-.2-.7-.4-.2-.1-.4-.2-.7-.3-.2-.1-.4-.2-.7-.3-.2-.1-.5-.2-.7-.2-.2-.1-.5-.1-.7-.2-.2-.1-.5-.1-.7-.2-.2 0-.5-.1-.7-.1-.2 0-.5-.1-.7-.1h-1.4c-.2 0-.5 0-.7.1-.2 0-.4.1-.7.1h-.6c-.1 0-.2 0-.2.1-.1 0-.1.1-.2.1s-.1.1-.2.1l-.1.1c-.1.1-.1.1-.1.2s-.1.1-.1.2-.1.1-.1.2-.1.1-.1.2-.1.1-.1.2-.1.1-.1.2-.1.1-.1.1-.1.1-.2.1c0 0-.1.1-.2.1s-.1 0-.2.1c0 0-.1 0-.1.1 0 0-.1 0-.1.1 0 0-.1 0-.1.1 0 0-.1 0-.1.1l-.1.1-.1.1-.1.1-.1.1-.1.1-.1.1s0 .1-.1.1v.4s-.2.4-.3.5l-.4.4c-.1.1-.3.2-.4.3-.1.1-.3.2-.4.3-.1.1-.3.2-.4.3-.1.1-.3.2-.4.3-.1.1-.3.2-.4.3-.1.1-.3.2-.4.2-.1.1-.3.1-.4.2-.2.1-.3.1-.5.2-.1.1-.3.1-.4.1-.2.1-.3.1-.5.1s-.3.1-.5.1-.3.1-.5.1h-1c0-.2-.1-.4-.1-.6v-1.6c0-.2 0-.4.1-.5 0-.2.1-.4.1-.5 0-.2.1-.4.1-.5 0-.2.1-.4.1-.5 0-.2.1-.3.2-.5s.1-.3.2-.5.1-.4.2-.5c.1-.2.1-.3.2-.5s.1-.3.2-.5.1-.3.2-.5.1-.3.2-.5.1-.3.2-.5v-.9c0-.1 0-.2.1-.3 0-.1.1-.2.1-.2 0-.1.1-.2.1-.3 0-.1.1-.2.1-.2 0-.1.1-.2.1-.2 0-.1.1-.2.1-.2 0-.1.1-.2.1-.2l.2-.2c0-.1.1-.1.2-.2l.2-.2.2-.2.2-.2.2-.2c0-.1.1-.1.1-.2s.1-.1.1-.2 0-.1.1-.2v-2.6c-.1-.2-.2-.3-.3-.5-.1-.1-.2-.3-.3-.4-.1-.1-.2-.2-.4-.3-.1-.1-.3-.2-.4-.3-.1-.1-.3-.2-.4-.2-.1-.1-.3-.1-.5-.2-.2 0-.3-.1-.5-.1s-.3-.1-.5-.1-.3-.1-.5-.1-.3 0-.5-.1h-2c-.2 0-.3 0-.5-.1-.2 0-.3 0-.5-.1l-.1-.1c-.1 0-.1-.1-.1-.1l-.1-.1-.1-.1s-.1 0-.1-.1h-1.9c-.1 0-.2.1-.3.1-.1.1-.2.1-.3.2-.1.1-.2.1-.2.2-.1.1-.1.2-.2.3-.1.1-.1.2-.2.3-.1.1-.1.2-.2.3-.1.1-.1.2-.1.3-.1.1-.1.2-.2.3 0 .1-.1.2-.2.3 0 .1-.1.2-.2.3-.1.1-.1.2-.2.3-.1.1-.1.2-.2.3l-.2.2c-.1.1-.2.1-.3.2l-.3.3-.3.3c-.1.1-.1.2-.2.3-.1.1-.1.2-.1.3 0 .1-.1.2-.1.3 0 .1 0 .2-.1.3v1.6c0 .1 0 .2-.1.3 0 .1-.1.2-.1.3 0 .1-.1.2-.1.3-.1.1-.1.2-.2.3-.1.1-.1.2-.2.3h1.6c.1 0 .1 0 .2.1.1 0 .1 0 .2.1.1 0 .1 0 .2.1l.1.1c.1 0 .1.1.1.1.1 0 .1.1.1.1l.1.1.1.1c.1.1.1.2.2.3 0 .1.1.2.1.3 0 .1.1.2.1.3 0 .1 0 .2.1.4v2.8c0 .1 0 .3-.1.4 0 .1 0 .2-.1.4 0 .1 0 .2-.1.4v.6c0 .1 0 .2.1.2v2.1c0 .1 0 .2-.1.3v1.6s0 .1-.1.1c0 0 0 .1-.1.1 0 0 0 .1-.1.1 0 0 0 .1-.1.1l-.1.1-.1.1-.1.1-.1.1-.1.1s-.1 0-.1.1c-.1 0-.1 0-.1.1h-3.8c-.2 0-.3 0-.5-.1-.2 0-.3 0-.5-.1-.2 0-.3 0-.5-.1-.2 0-.3-.1-.5-.1s-.3-.1-.5-.1-.3-.1-.5-.1-.3-.1-.5-.1-.3-.1-.5-.1-.3-.1-.5-.1-.3-.1-.5-.1-.3-.1-.5-.1c-.2-.1-.3-.1-.5-.2s-.3-.1-.5-.2-.3-.1-.5-.2-.3-.1-.5-.2c-.1-.1-.3-.1-.5-.2v.6c0 .1 0 .2.1.2 0 .1 0 .1.1.2 0 .1.1.1.1.2s.1.1.1.2.1.1.1.2.1.1.1.2.1.1.1.2.1.1.1.2.1.1.1.2.1.2.1.2c0 .1.1.1.1.2s.1.2.1.2c0 .1.1.2.1.2.1.1.1.2.2.3.1.1.1.2.2.3.1.1.2.2.2.3s.2.2.3.3c.1.1.2.2.3.4l.3.3.3.3.3.3c.1.1.2.2.4.3.1.1.2.2.4.3.1.1.3.1.4.2.1.1.3.1.4.2.1.1.3.1.4.1.1 0 .3.1.4.1.4 0 .8-.1 1.2 0 .2 0 1.5.1 1.7 0 .3 0 .5 0 .8-.1.2-.1.5-.2.7-.2.5 0 .8.4 1.3.3.6-.1 1.1-.2 1.2.5v.9c0 .1 0 .2-.1.3 0 .1 0 .2-.1.3 0 .1 0 .2-.1.3 0 .1 0 .2-.1.3v1.5c0 .1-.1.2-.1.2 0 .1-.1.1-.2.2-.1 0-.1.1-.2.1s-.1.1-.2.1-.1 0-.2.1h-1.2c-.1 0-.2 0-.2.1-.1 0-.2.1-.2.1-.1 0-.1.1-.2.1-.1.1-.5.2-.6.2h-.4c-.1 0-.3 0-.4.1-.1 0-.3.1-.4.1-.1 0-.3.1-.4.1-.1 0-.2.1-.4.1-.1 0-.2.1-.3.1-.1 0-.2.1-.4.1-.1.1-.2.1-.3.1-.1 0-.2.1-.4.1-.1 0-.2.1-.4.1-.7.2-1.4.1-2.1.3-.5.1-1.1.2-1.6.3-.9.2-1.7.6-2.6.8-.8.2-1.5.2-2.3.2-.4 0-.6.2-1 .4-1.7.5-3.5.5-5.3 1.1-.8.3-1.6.2-2.4.4-1 .3-4.5 1.7-4.3-.5v-.2c0-.1.1-.2.1-.2 0-.1.1-.2.1-.2 0-.1.1-.2.1-.2 0-.1.1-.1.1-.2s.1-.1.1-.2.1-.1.1-.2.1-.1.1-.2.1-.1.1-.2 0-.1.1-.2v-.4h-3c-.2 0-.3 0-.5-.1-.2 0-.3 0-.5-.1-.1 0-.3-.1-.4-.1-.2 0-.3-.1-.4-.1-.1-.1-.3-.1-.4-.2-.1-.1-.3-.1-.4-.2-.1-.1-.3-.1-.4-.2-.1-.1-.3-.2-.4-.3-.1-.1-.3-.2-.4-.3-.1-.1-.3-.2-.4-.4h-.9c-.1 0-.2 0-.3.1-.1 0-.2 0-.3.1-.1 0-.2.1-.3.1-.1 0-.2.1-.3.1-.1 0-.2.1-.2.1-.1 0-.2.1-.2.1-.1 0-.2.1-.2.1l-.2.2-.2.2-.2.2-.2.2-.2.2-.2.2c-.1.1-.1.1-.1.2s-.1.1-.1.2-.1.1-.1.2 0 .1-.1.2v2.4c0 .1.1.2.1.3 0 .1.1.2.1.3 0 .1.1.2.1.3V76c0 .1.1.2.1.3 0 .1.1.2.1.3 0 .1.1.2.2.3.1.1.1.2.2.3.2.4.5.7.7 1 .3.3.5.6.8.8.3.2.6.4.8.6.3.2.6.3.9.4.3.1.6.2 1 .3.3.1.7.1 1 .1h1c.3 0 .7-.1 1.1-.1.4-.1.7-.1 1.1-.2.4-.1.7-.2 1.1-.3.4-.1.7-.2 1.1-.3.4-.1.7-.2 1.1-.3.4-.1.7-.2 1.1-.3 1.2-.4 2.6-.5 3.6-1.2.9-.6 2.1-.5 3.1-.9.1 0 .2-.1.3-.1.1-.1.2-.1.3-.2.1-.1.2-.1.2-.2.2 0 .3 0 .4-.1.1 0 .3-.1.4-.1.1 0 .3-.1.4-.1.1 0 .3-.1.4-.1.1-.1.3-.1.4-.2.1-.1.3-.1.4-.2.1-.1.3-.1.4-.2.9-.4 1.9-.9 3-1 .9-.1 1.7-.7 2.5-1 .2-.1.3-.1.5-.2s.3-.1.5-.2c.2 0 .3-.1.5-.1.2-.1.3-.1.5-.1s.3-.1.5-.1.3-.1.5-.1.3-.1.5-.1.3-.1.5-.1.3-.1.5-.1.3-.1.5-.1c.2-.1.3-.1.5-.2s.3-.1.5-.2l.2-.2.2-.2c.1 0 .1-.1.2-.1s.1-.1.2-.1.1-.1.2-.1.2-.1.2-.1c.1 0 .2 0 .2-.1h2.7c.1.1.2.2.2.3.1.1.1.2.2.3.1.1.1.2.1.3v.6c0 .1 0 .2-.1.3 0 .1 0 .2-.1.3 0 .1-.1.2-.1.3 0 .1-.1.2-.1.3 0 .1-.1.2-.1.3 0 .1-.1.2-.1.3 0 .1 0 .2-.1.3v.9c0 .1.1.2.1.3 0 .1-.1.1-.1.2s-.1.1-.1.2l-.1.1c0 .1-.1.1-.1.1l-.1.1c-.1 0-.1.1-.2.1s-.1.1-.2.1-.1.1-.2.1-.1.1-.2.1-.1 0-.2.1c-.1 0-.1 0-.2.1h-.8c-.1 0-.4.1-.6.2-.1.1-.3.1-.4.2-.1.1-.3.1-.4.2-.1.1-.3.1-.4.1-.1 0-.3.1-.4.1-.1 0-.3.1-.4.1-.1 0-.3.1-.4.1-.2 0-.3.1-.5.1-.1 0-.3 0-.4.1-.1 0-.3 0-.4.1-1.1.2-2 .5-3.1 1-.8.4-1.7 0-2.6.3-.1 0-.1.1-.2.1s-.1.1-.2.1-.1.1-.2.2c.1.1.1.2.2.2.1.1.1.2.2.2.1.1.1.2.2.2l.2.2.2.2c.1.1.2.1.3.2.1.1.2.1.3.2.1.1.2.1.3.2.1.1.2.1.3.2.1.1.2.1.3.2.1.1.2.1.3.1.1 0 .2.1.3.1.1 0 .2.1.3.1.1 0 .2 0 .3.1h.6c.2.1.3.1.5.2.2 0 .3.1.5.1s.3 0 .5.1h1c.2 0 .3 0 .5-.1.2 0 .3-.1.5-.1.1 0 .3-.1.5-.1.1 0 .3-.1.4-.1.2-.1.3-.1.5-.2s.3-.1.5-.2c.1-.1.3-.1.4-.2.2-.1.3-.1.5-.2s.3-.1.5-.2c.1-.1.3-.1.5-.2.2 0 .3-.1.5-.1l.1.1.1.1.1.1s0 .1.1.1c0 0 0 .1.1.1v.8s0 .1.1.1c0 0 0 .1.1.1v.3c0 .1-.1.1-.1.2s0 .1-.1.2v2.6c0 .1-.1.2-.1.2 0 .1-.1.2-.1.2 0 .1-.1.1-.1.2s-.1.1-.1.2l-.2.2-.2.2-.2.2-.2.2c-.1 0-.1.1-.2.1-.1.1-.1.1-.2.1s-.2.1-.2.1c-.1 0-.2.1-.2.1-.1 0-.2.1-.2.1-.1 0-.2.1-.2.1-.1 0-.2.1-.2.1h-1.2c-.2 0-.3 0-.5.1-.2 0-.4.1-.5.1-.2 0-.4.1-.5.1-.2 0-.3.1-.5.1s-.4.1-.5.1c-.2 0-.4.1-.5.1-.2 0-.4.1-.5.1-.2 0-.3.1-.5.1h-1.5c-1-.1-2.2-.3-1.6 1.1 0 .1.1.1.1.2s.1.1.1.2 0 .1.1.2c0 .1 0 .1.1.2 0 .1 0 .1.1.2 0 .1 0 .1.1.2 0 .1 0 .1.1.2 0 .1.1.2.1.3v.6c0 .1-.1.1-.1.2s-.1.1-.1.2l-.2.2-.2.2c-.6.4-1.5.6-1.9 1.3 1.7.4 3.2-.9 4.9-.7 1 .1 1.8.1 2.8-.1.4-.1.8 0 1.3-.2.4-.1.8-.4 1.2-.6.1 0 .1-.1.2-.1 0 0 .1 0 .1-.1 0 0 .1 0 .1-.1.1 0 .1 0 .1-.1 0 0 .1 0 .1-.1h.1c.2 0 .4 0 .5.1.2 0 .3.1.4.2.1.1.2.1.3.2.1.1.2.2.2.3.1.1.1.2.2.3 0 .1.1.2.1.4v3.5c0 .1 0 .3.1.4 0 .1.1.2.1.3 0 .1-.1.2-.1.2l-.2.2-.2.2c-.1.1-.1.1-.2.1-.1.1-.1.1-.2.1s-.1.1-.2.1-.1.1-.2.1-.1.1-.2.1-.2.1-.3.1c-.1 0-.2 0-.2.1-.1 0-.2.1-.2.1-.1 0-.2.1-.2.1-.1 0-.2.1-.2.1-.1 0-.1.1-.2.1s-.1.1-.2.1-.1.1-.2.1-.3.1-.4.1c-.1 0-.3.1-.4.1-.1 0-.3.1-.4.1-.1 0-.3.1-.4.1-.1 0-.3.1-.4.1-.1 0-.2.1-.4.1-.1 0-.2.1-.4.1-.1 0-.3.1-.4.1-.1 0-.3.1-.4.1-.1 0-.3.1-.4.1-.1 0-.2.1-.4.1-.1 0-.3.1-.4.1s-.3.1-.4.1c-.1 0-.3.1-.4.1-.1 0-.3.1-.4.1-.1 0-.3.1-.4.1h-.8c-.1 0-.1 0-.2.1-.1 0-.1.1-.2.1s-.1.1-.2.1c0 0-.1.1-.2.1s-.1.1-.2.1-.1.1-.2.1-.1.1-.2.1-.1 0-.2.1c-.1 0-.1 0-.2.1h-.4c-.1 0-.4.1-.5.2-.1.1-.2.1-.3.2-.1 0-.2.1-.3.1-.1 0-.2.1-.3.1-.1 0-.2.1-.3.1-.1 0-.2 0-.3.1-.1 0-.2 0-.3.1h-1.2c-.1 0-.2 0-.3.1-.1 0-.2 0-.3.1-.1 0-.2 0-.3.1-.1 0-.2.1-.3.1-.1 0-.2.1-.3.1-.1 0-.3 0-.4-.1h-.8c-.1 0-.3 0-.4.1-.1 0-.3.1-.4.1-.1 0-.3.1-.4.1-.1 0-.3.1-.4.1-.1 0-.3.1-.4.1-.1 0-.3.1-.4.1-.1 0-.3.1-.4.1-.1 0-.3 0-.4.1h-.8c-.1 0-.3 0-.4-.1-.1 0-.3-.1-.4-.1-.1 0-.3-.1-.4-.2l-.2-.2-.2-.2-.2-.2c-.1-.1-.1-.2-.2-.2 0-.1-.1-.2-.1-.3 0-.1-.1-.2-.1-.3 0-.1-.1-.2-.1-.3 0-.1 0-.2-.1-.3 0-.1 0-.2-.1-.3v-2c0 .1-.1.2-.1.2 0 .1-.1.1-.1.2s-.1.1-.1.2-.1.1-.1.2c-.1.1-.1.1-.2.1s-.1.1-.2.1-.1.1-.2.1-.1.1-.2.1-.1.1-.2.1-.1.1-.2.1-.1.1-.2.1-.1.1-.2.1l-.2.2c-.1.1-.1.1-.1.2-.1.1-.1.1-.1.2s-.1.1-.1.2c-.1.1-.1.2-.2.3-.1.1-.1.2-.2.3 0 .1-.1.2-.1.3 0 .1-.1.2-.1.3 0 .1-.1.2-.1.3 0 .1 0 .2-.1.3v1.2c0 .1 0 .2.1.3 0 .1.1.2.1.3 0 .1.1.2.1.3 0 .1.1.2.1.2 0 .1.1.2.2.3.1.1.1.2.2.2.1.1.1.2.2.2l.2.2.2.2.2.2.2.2.2.2.2.2c.1.1.2.1.2.2.1 0 .2.1.2.1.1 0 .2.1.2.1.1 0 .2.1.3.1.1 0 .2.1.3.1.1 0 .2.1.3.1.1 0 .2.1.3.1.1 0 .2.1.3.1.1 0 .2 0 .3.1 1.6.2 3 .6 4.6.2.7-.2 1.4-.5 2.1-.5.4 0 .8.1 1.2.1.5 0 1-.3 1.5-.5.1 0 .2-.1.3-.1.1 0 .2-.1.4-.1.1 0 .2-.1.4-.1.1 0 .2-.1.4-.1.1 0 .2-.1.4-.1.1 0 .2-.1.4-.1.1 0 .2-.1.4-.1.1 0 .2-.1.4-.1.1 0 .2-.1.4-.1.1 0 .2-.1.4-.1.1 0 .2-.1.4-.1.1 0 .2-.1.3-.1.1 0 .2.1.4.1h.6c.1 0 .2-.1.3-.1.1 0 .2-.1.3-.1.1 0 .2-.1.3-.1.1-.1.2-.1.3-.2.1 0 .2-.1.3-.1.1-.1.2-.1.3-.1.1 0 .2-.1.3-.1.1 0 .2-.1.3-.1.1 0 .2 0 .3-.1h.6c.1 0 .2.1.3.1.1.1.2.1.3.2v.6c0 .1 0 .2-.1.3 0 .1-.1.2-.1.3 0 .1-.1.2-.1.3 0 .1-.1.2-.1.2 0 .1-.1.2-.1.2-.1.1-.1.2-.2.3 0 .1-.1.2-.1.2-.1.1-.1.2-.1.2-.1.1-.1.2-.2.2-.1.1-.1.2-.2.2-.1.1-.1.1-.1.2s-.1.1-.1.2c-.1.1-.1.1-.1.2s-.1.1-.1.2v1c0 .1 0 .1-.1.2 0 .1 0 .1-.1.2 0 .1 0 .1-.1.2 0 .1 0 .1-.1.2 0 .1-.1.1-.1.2s-.1.1-.1.2 0 .1-.1.2c0 .1 0 .1-.1.2 0 .1 0 .1-.1.2 0 .1 0 .1-.1.2v.2c-.1.2-.1.4-.2.7-.1.2-.1.4-.2.7-.1.2-.1.4-.2.7 0 .2-.1.5-.1.7 0 .2-.1.5-.1.7 0 .2-.1.5-.1.7 0 .2-.1.5-.1.7 0 .2-.1.5-.1.7 0 .2-.1.5-.1.7 0 .2 0 .5-.1.7 0 .2 0 .5-.1.7v4.3c0 .3 0 .5.1.8 0 .3.1.5.1.8 0 .3.1.5.2.8.1.3.1.5.2.8.1.2.2.5.3.7.1.2.2.5.3.7.1.2.2.5.4.7.1.2.3.4.4.7.1.2.3.4.4.6.2.2.3.4.5.6.2.2.3.4.5.6.2.2.4.4.6.5.2.2.4.3.6.5.2.2.4.3.6.5.2.1.4.3.6.4h1.7c.1 0 .1 0 .2-.1.1 0 .1 0 .2-.1.1 0 .1-.1.2-.1s.1-.1.2-.1.1-.1.2-.1.1-.1.2-.1l.1-.1c0-.1.1-.1.1-.2s.1-.1.1-.2.1-.1.1-.2.1-.1.1-.2.1-.1.1-.2.1-.1.1-.2.1-.1.1-.2 0-.1.1-.2v-2.7c-.1 0-.1-.1-.1-.1 0-.1-.1-.1-.1-.1l-.1-.1c0-.1-.1-.1-.1-.2s0-.1-.1-.2v-1.2c0-.1 0-.1-.1-.2v-.2c0-.1-.1-.1-.1-.2s-.1-.1-.1-.2-.1-.1-.1-.2v-.6c0-.1 0-.1-.1-.2 0-.1-.1-.1-.1-.2s-.1-.1-.1-.2-.1-.1-.1-.2-.1-.1-.1-.2-.1-.1-.1-.2-.1-.1-.1-.2-.1-.2-.1-.2c0-.1-.1-.2-.1-.3 0-.1 0-.2-.1-.3v-.9c-.1-.2-.1-.4-.1-.6-.1-.2-.1-.4-.1-.5-.1-.2-.1-.4-.2-.5 0-.2-.1-.4-.1-.5 0-.2-.1-.4-.1-.5 0-.2-.1-.4-.1-.5 0-.2-.1-.4-.1-.5 0-.2-.1-.4-.1-.5 0-.2-.1-.4-.1-.5 0-.2-.1-.4-.1-.6 0-.2 0-.4-.1-.6 0-.2 0-.4-.1-.6 0-.2-.1-.4-.1-.6 0-.2 0-.4-.1-.6 0-.2 0-.4-.1-.6v-.6c.1-.1.2-.2.3-.4l.3-.3c.1-.1.2-.1.3-.2.1-.1.2-.1.3-.1.1 0 .2-.1.4-.1h3.2c.1 0 .3 0 .4-.1.1 0 .3-.1.4-.1.1 0 1-.1 1-.1h.1s.6 0 .6-.1c0 0 .8-.2.9-.2h.3c.1 0 .2 0 .3-.1.1 0 .2 0 .3-.1.1 0 .2-.1.3-.1.1 0 .2-.1.3-.1.1 0 .2-.1.3-.1.1 0 .2-.1.3-.1.1 0 .2-.1.3-.1.1 0 .2-.1.3-.1.1 0 .2-.1.3-.1.1 0 .2 0 .3-.1.1 0 .2 0 .3-.1h.6c.1-.1.3-.1.4-.1.1-.1.3-.1.4-.1.1 0 .3-.1.4-.1.1 0 .3-.1.4-.1.1 0 .3-.1.4-.1.1 0 .3-.1.4-.1.1 0 .3 0 .4-.1.1 0 .3 0 .4-.1.1 0 .3 0 .4-.1h4.3s.3-.1.4-.1c.1-.1.2-.1.3-.1.1 0 .2-.1.3-.1.1 0 .2-.1.3-.1h3.3c.1 0 .2 0 .3-.1h1.1v.5c0 .2 0 .4-.1.5 0 .2-.1.4-.1.5 0 .2-.1.3-.1.5-.1.2-.1.3-.2.5s-.1.3-.2.5-.1.3-.2.5-.2.3-.2.5c-.1.2-.2.3-.2.5-.1.2-.2.3-.2.5-.1.2-.2.3-.3.5-.1.2-.2.3-.2.5-.1.2-.2.3-.2.5-.1.2-.1.3-.2.5s-.1.3-.2.5-.1.3-.2.5c-.1.1-.2.3-.3.4-.1.1-.2.3-.3.4-.1.1-.2.3-.3.4-.1.1-.2.3-.2.4-.1.1-.2.3-.2.4-.1.1-.1.3-.2.4-.1.1-.1.3-.2.4-.1.1-.1.3-.2.4-.1.1-.1.3-.2.4-.1.1-.1.3-.2.4-.1.1-.1.3-.2.4-.1.1-.1.3-.2.4-.1.1-.2.3-.2.4-.1.1-.2.3-.3.4l-.3.3-.3.3c-.1-.1-.3-.1-.5-.1s-.3-.1-.5-.1h-4c-.1 0-.3 0-.4-.1-.1 0-.3-.1-.4-.1-.1 0-.3-.1-.4-.2-.1-.1-.3-.1-.4-.2l-.3-.3c-.1-.1-.2-.3-.3-.4l.2-.2.2-.2.2-.2.2-.2.2-.2.2-.2c.1-.1.2-.1.2-.2.1-.1.2-.1.2-.2l.2-.2c.1 0 .2-.1.2-.1.1-.1.2-.1.2-.1.1 0 .2-.1.3-.1.1 0 .2-.1.3-.1.1 0 .2-.1.3-.1.1 0 .2-.1.3-.1.1 0 .2-.1.3-.1.1-.1.1-.2.2-.3.1-.1.1-.2.2-.2l.2-.2c.1-.1.1-.1.2-.1.1-.1.2-.1.2-.1.1 0 .2-.1.3-.1.1 0 .2-.1.3-.1.1 0 .2-.1.3-.1.1 0 .2 0 .3-.1.1 0 .2 0 .3-.1.1 0 .2-.1.3-.1.1 0 .2-.1.3-.1.1 0 .2-.1.3-.1.1-.1.2-.1.2-.2l.2-.2c.1-.1.1-.2.2-.3 0 0 0-.1.1-.1 0 0 0-.1.1-.1v-1.3l.1-.1c0-.1-.1-.2-.2-.3-.1-.1-.1-.2-.2-.3-.1-.1-.1-.2-.2-.3l-.3-.3-.3-.3-.3-.3-.3-.3c-.1-.1-.2-.2-.3-.2-.1-.1-.2-.1-.4-.2-.1-.1-.2-.1-.4-.2-.1-.1-.3-.1-.4-.2-.1 0-.3-.1-.4-.1-.1 0-.3-.1-.4-.1-.1 0-.3-.1-.4-.1-.1 0-.3-.1-.4-.1h-.4c-.1-.1-.3-.1-.4-.2-.1 0-.3-.1-.4-.1h-.4c-.1 0-.3 0-.4.1-.1 0-.2.1-.4.1-.1 0-.2.1-.4.1-.1.1-.2.1-.4.2-.1.1-.2.1-.4.2-.1.1-.2.1-.4.2-1 .5-2.3.4-3.3 1-.8.5-1.8.5-2.6 1-.1 0-.1.1-.2.1l-.1.1-.1.1v.4c0 .1 0 .2.1.3 0 .1.1.2.1.3h.3c.1 0 .2 0 .3.1.1 0 .2 0 .3.1.1 0 .2.1.3.1.1 0 .2.1.3.1.1 0 .2.1.3.1.1 0 .2.1.3.1.1 0 .2.1.3.1.1.1.2.1.3.1.1 0 .2.1.3.1.1 0 .2.1.3.1.1 0 .2.1.3.1.1 0 .2 0 .3.1h.6c.1 0 .2 0 .3-.1v.4s0 .1-.1.1l-.1.1-.1.1-.1.1-.1.1-.1.1s-.1 0-.1.1c0 0-.1 0-.1.1 0 0-.1 0-.1.1 0 0-.1 0-.1.1 0 0-.1 0-.1.1h-.1c-.1.1-.1.2-.2.2l-.2.2c-.1.1-.2.1-.2.2-.1.1-.2.1-.3.2-.1.1-.2.1-.3.2-.1.1-.2.1-.3.1-.1.1-.2.1-.3.1-.1 0-.2.1-.3.1-.1 0-.2.1-.3.1-.1.1-.2.1-.3.1-.1.1-.2.1-.3.1-.1.1-.2.1-.2.2-.1.1-.2.1-.2.2l-.2.2-.2.2c-.1.1-.1.2-.2.2s-.1 0-.2.1c-.1 0-.1 0-.2.1-.1 0-.1.1-.2.1s-.1.1-.1.1l-.1.1-.1.1c0 .1-.1.1-.1.2s-.1.1-.1.2-.1.1-.1.2-.1.1-.1.2-.1.1-.1.2-.1.1-.1.2 0 .1-.1.2v.6c0 .1 0 .1.1.2 0 .1 0 .2.1.2 0 .1 0 .2.1.3 0 .1 0 .2.1.3 0 .1.1.2.1.3 0 .1 0 .2.1.3 0 .1.1.2.1.3 0 .1.1.2.1.3 0 .1.1.2.1.3 0 .1.1.2.1.3 0 .1.1.2.2.2l.2.2.2.2.2.2c.1.1.2.1.3.1.1 0 .2.1.3.1.2.1.5.1.7.1.2.1.5.1.7.1s.5.1.7.1c.2 0 .5.1.7.1.2 0 .5.1.7.1.2 0 .5 0 .7.1.2 0 .5 0 .7.1h6.3c.1 0 .1.1.2.1s.1.1.2.1.1.1.2.1.1.1.2.1c0 .1.1.1.1.2s.1.1.1.2.1.1.1.2.1.1.1.2.1.1.1.2c.1.1.1.1.1.2.1.1.1.1.1.2l.2.2c.1.1.1.1.2.1.1.1.1.1.2.1s.1.1.2.1.2.1.3.1c.1 0 .1 0 .2.1h.6c.1 0 .1 0 .2-.1.1 0 .1 0 .2-.1.1 0 .1-.1.2-.1s.1 0 .2-.1c.1 0 .1-.1.2-.1s.1 0 .2-.1h.6c.1 0 .1 0 .2.1.1 0 .1.1.2.1s.1.1.2.2c.3 0 .6-.1.8-.1.3-.1.6-.1.8-.2.3-.1.5-.2.8-.3.3-.1.5-.2.8-.3.3-.1.5-.3.8-.4.3-.1.5-.3.8-.4.3-.2.5-.3.7-.5.2-.2.5-.3.7-.5.2-.2.5-.4.7-.6.2-.2.4-.4.7-.6.2-.2.4-.4.7-.6l.6-.6.6-.6c.2-.2.4-.4.6-.7.2-.2.4-.4.6-.7.2-.2.4-.4.5-.7.1-.2.3-.4.4-.6.1-.2.3-.4.4-.6.1-.2.3-.4.5-.6.2-.2.3-.4.5-.6.2-.2.3-.4.5-.6.2-.2.3-.4.5-.6.2-.2.3-.4.5-.6.2-.2.3-.4.5-.6.2-.2.3-.4.5-.6.2-.2.3-.4.5-.6.1-.2.3-.4.4-.6.1-.2.3-.4.4-.6.1-.2.3-.4.4-.6.1-.2.2-.4.3-.7.1-.2.2-.4.3-.7.1-.2.2-.5.3-.7l.2-.2.3-.3c.1-.1.2-.2.2-.3l.3-.3c.1-.1.2-.2.2-.3.1-.1.2-.2.2-.3.1-.1.2-.2.2-.3.1-.1.1-.2.2-.3.1-.1.1-.2.2-.3.1-.1.1-.2.2-.4.1-.1.1-.3.1-.4 0-.1.1-.3.1-.4 0-.1.1-.3.1-.4 0-.1.1-.3.1-.4v-.9l-.1-.1c0-.1-.1-.1-.1-.1s0-.1-.1-.1c0 0 0-.1-.1-.1 0-.1 0-.1-.1-.1v-2.2c-.1-.1-.2-.2-.2-.3-.1-.1-.1-.2-.2-.3-.1-.1-.1-.2-.2-.3-.1-.1-.1-.2-.2-.3-.1-.1-.1-.2-.2-.3-.1-.1-.1-.2-.2-.3-.1-.1-.1-.2-.2-.3-.1-.1-.1-.2-.2-.3-.1-.1-.1-.2-.2-.3-.1-.1-.1-.2-.2-.2-.1-.1-.2-.2-.3-.2-.1-.1-.2-.1-.3-.2-.1-.1-.2-.1-.3-.2-.1-.1-.2-.1-.3-.2-.1-.1-.2-.1-.3-.2-.1 0-.3-.1-.4-.1-.2 0-.4-.1-.5-.1-.2 0-.4-.1-.6-.1-.2 0-.4-.1-.5-.1-.2-.1-.4-.1-.6-.1-.2 0-.4-.1-.5-.1-.2 0-.4-.1-.5-.1-.2 0-.4-.1-.5-.1-.2 0-.4-.1-.5-.1-.2 0-.4-.1-.5-.1h-1c-.2 0-.4 0-.5.1-.2 0-.4.1-.5.1-.2 0-.3.1-.5.2s-.3.1-.5.2-.3.2-.5.3l-.3.3-.3.3c-.1.1-.2.2-.3.2-.1.1-.2.1-.3.2-.1.1-.2.1-.3.2-.1.1-.2.1-.3.2-.1.1-.2.1-.3.1-.1 0-.2.1-.3.1-.1 0-.2.1-.3.1-.1 0-.2.1-.3.1-.1 0-.2.1-.3.1-.1 0-.2.1-.3.1-.1 0-.2.1-.3.1-.1 0-.2.1-.4.1-.1 0-.2.1-.3.1-.1 0-.2 0-.3.1h-1.2c-.2 0-.4 0-.6.1-.2 0-.4.1-.6.1-.2.1-.4.1-.6.2-.2.1-.4.1-.6.2-.2.1-.4.1-.6.2-.2.1-.4.1-.6.2-.2.1-.4.2-.6.2-.2.1-.4.1-.6.2-.2.1-.4.1-.6.2-.2.1-.4.1-.6.2-.9.2-1.9.1-2.7.4-.8.3-1.4.8-2.2 1-.1 0-.1.1-.2.1s-.2 0-.2.1c-.1 0-.2 0-.2.1-.1 0-.2.1-.2.1-.3.1-.5.1-.8.2-.3.1-.5.1-.8.2-.3 0-.5.1-.8.2-.3.1-.5.1-.8.2-.3.1-.5.1-.8.2-.3.1-.5.1-.8.2-.3.1-.5.1-.8.2-.3.1-.5.1-.8.2-.3.1-.5.1-.8.2-.3.1-.5.1-.8.2-.2.1-.5.1-.7.2-.2.1-.5.1-.7.2-.2.1-.5.1-.7.2-.2.1-.5.2-.7.2-.2.1-.5.2-.7.3-.3.1-.5.2-.7.3-.1-.1-.2-.1-.3-.2-.1-.1-.2-.1-.2-.2-.1-.1-.1-.2-.2-.3 0-.1-.1-.2-.1-.3 0-.1-.1-.2-.1-.3v-1.2c0-.1 0-.2.1-.4 0-.1 0-.2.1-.4 0-.1 0-.2.1-.3 0-.1 0-.2.1-.3v-.9c.1-.1.2-.2.3-.4l.3-.3.3-.3.3-.3c.1-.1.2-.2.4-.3.1-.1.2-.2.4-.3.1-.1.2-.2.4-.3.1-.1.3-.2.4-.3.1-.1.3-.2.4-.3.1-.1.3-.2.4-.3.1-.1.3-.2.4-.3.1-.1.3-.2.4-.2.1-.1.3-.1.4-.2.1-.1.3-.1.4-.2.1-.1.3-.1.4-.2.1-.1.3-.1.5-.2.1 0 .3-.1.4-.1.1 0 .3-.1.4-.1.1 0 .3-.1.4-.1.1 0 .3-.1.4-.1.1-.1.2-.1.4-.1.1-.1.3-.1.4-.2.1-.1.2-.1.4-.2.1-.1.3-.1.4-.2.1-.1.3-.1.4-.2.1-.1.3-.1.4-.2.1-.1.2-.1.4-.2.1-.1.3-.1.4-.2.1-.1.3-.1.4-.2.1-.1.3-.1.4-.2.1-.1.3-.1.4-.2.1-.1.3-.1.4-.2.1 0 .2-.1.3-.1.1 0 .2-.1.4-.1.1 0 .2-.1.3-.1.1 0 .2-.1.3-.1.1 0 .2-.1.3-.1.1 0 .2-.1.3-.1.1 0 .2-.1.3-.1.1 0 .2-.1.3-.1.1 0 .2-.1.3-.1.1 0 .2-.1.3-.1.1 0 .2-.1.3-.1.1-.1.2-.1.3-.2.1-.1.2-.1.3-.2.1-.1.2-.1.3-.2.1-.1.2-.1.3-.2.1-.1.5-.3.7-.3h.4c.1 0 .3 0 .4-.1.1 0 .2-.1.4-.1.1 0 .2-.1.4-.1.1 0 .2-.1.4-.1.1-.1.2-.1.3-.1.1 0 .2-.1.3-.1.1-.1.2-.1.3-.2.1-.1.2-.1.3-.2.1-.1.2-.1.3-.2.1-.1.2-.1.3-.2.1-.1.2-.1.3-.2.1 0 .2-.1.3-.1.1 0 .2-.1.3-.1.1 0 .2-.1.4-.1h.6c.1 0 .2 0 .3-.1.1 0 .2 0 .3-.1.1 0 .2-.1.2-.1.1 0 .2-.1.2-.1.1 0 .2-.1.2-.1.1 0 .1-.1.2-.1s.2-.1.2-.1c.1 0 .2-.1.2-.1.1 0 .2-.1.2-.1.1 0 .2-.1.2-.1.1 0 .2-.1.2-.1.1 0 .2-.1.3-.1.1 0 .2-.1.3-.1.1 0 .2-.1.3-.1.1-.1.2-.1.3-.2.1-.1.2-.1.3-.2.1-.1.2-.1.2-.2l.2-.2c.1-.1.1-.2.2-.2.1-.1.1-.2.2-.3.1-.1.1-.2.2-.3.1-.1.1-.2.2-.3.1-.1.1-.2.2-.3 0-.1.1-.2.1-.3 0-.1.1-.2.1-.3 0-.1.1-.2.1-.3 0-.1.1-.2.1-.3 0-.1 0-.2.1-.3v-.7c0-.2-.1-.3-.2-.4-.1-.1-.1-.3-.2-.4l-.3-.3-.3-.3-.3-.3c-.1-.1-.2-.2-.4-.2-.1-.1-.3-.1-.4-.2-.1-.1-.3-.1-.4-.2-.1-.1-.3-.1-.4-.1-.1-.1-.3-.1-.4-.1-.1 0-.3-.1-.4-.1-.1 0-.3-.1-.4-.1-.1 0-.3-.1-.4-.1-.1 0-.3-.1-.4-.1-.1 0-.3-.1-.4-.1-.1-.1-.3-.1-.4-.2-.1 0-.2.1-.3.1-.1 0-.2 0-.3.1-.1 0-.2 0-.3.1h-.3c-.1 0-.2 0-.3.1h-.3c-.1 0-.2 0-.3.1-.1 0-.2 0-.3.1-.1 0-.2 0-.3.1-.1 0-.2 0-.3.1-.1 0-.2.1-.3.1-.1 0-.2.1-.3.1-.1 0-.2.1-.3.1-.1.1-.2.1-.3.2-.1.1-.2.1-.3.2-.1.1-.2.1-.2.2-.2.1-.3.2-.4.3-.1.1-.3.2-.4.3-.1.1-.2.2-.4.3-.1.1-.2.3-.4.4-.1.1-.2.3-.3.4-.1.1-.2.3-.3.4-.1.1-.2.3-.3.4-.1.1-.2.3-.3.4-.1.1-.2.3-.3.4-.1.1-.2.3-.3.4-.1.1-.2.3-.3.4l-.4.4c-.1.1-.2.2-.4.3-.1.1-.3.2-.4.3-.1.1-.3.2-.4.3s-.6.2-.6.2h-.2c-.1 0-.1 0-.2.1-.1 0-.1 0-.2.1-.1 0-.1.1-.2.1s-.1.1-.2.1-.1.1-.2.1-.1.1-.2.1-.1 0-.2.1h-.6c-.1 0-.1 0-.2-.1-.1 0-.1-.1-.1-.1 0-.1-.1-.1-.1-.2v-4.6c0-.1 0-.2.1-.2 0 0 .1 0 .1-.1l.1-.1s.1 0 .1-.1l.1-.1s.1 0 .1-.1c0 0 .1 0 .1-.1 0 0 .1 0 .1-.1 0 0 .1 0 .1-.1 0 0 .1 0 .1-.1 0 0 .1 0 .1-.1l.1-.1.1-.1.1-.1.1-.1.1-.1.1-.1c.1 0 .3-.1.4-.1.1 0 .3-.1.4-.1.1 0 .3-.1.4-.1.1 0 .3-.1.4-.1.1-.1.3-.1.4-.1.1 0 .3-.1.4-.1.1 0 .3-.1.4-.1.1 0 .3-.1.4-.1.1 0 .3-.1.4-.1.1 0 .3-.1.4-.1.1 0 .3-.1.4-.1.1 0 .3-.1.4-.1.1 0 .3-.1.4-.1.1 0 .3 0 .4-.1.1 0 .3 0 .4-.1h.4c.1-.1.2-.1.3-.2.1-.1.2-.1.3-.2.1-.1.2-.1.3-.2.1-.1.2-.1.3-.2.1 0 .2-.1.3-.1.1 0 .2-.1.3-.1.1-.1.2-.1.3-.1.1 0 .2-.1.3-.1.1-.1.2-.1.3-.2.1-.1.2-.1.3-.2.1-.1.2-.1.3-.2.1-.1.2-.1.3-.2.1-.1.2-.1.2-.2.1-.1.2-.2.2-.3.1-.1.1-.2.2-.3.1-.1.1-.2.2-.3 0 0 0-.1.1-.1l.1-.1s0-.1.1-.1v-1s0-.1-.1-.1c0 0 0-.1-.1-.1 0 0 0-.1-.1-.1-.1-.1-.1-.2-.2-.3l-.3-.3c-.1-.1-.2-.2-.3-.2-.1-.1-.2-.1-.3-.2-.1-.1-.2-.1-.3-.2-.1 0-.2-.1-.3-.1-.1 0-.2-.1-.4-.1-.1 0-.3-.1-.4-.1h-3.8c-.1 0-.3.1-.4.1-.1 0-.3.1-.4.1-.1.1-.3.1-.4.2-.1.1-.3.1-.4.2-.1.1-.2.1-.4.2-.1.1-.2.1-.4.2-.1.1-.2.2-.4.2-.1.1-.3.1-.4.2-.1.1-.3.1-.4.2-.1.1-.3.1-.4.2-.1.1-.3.1-.4.2-.1.1-.3.1-.4.1-.1 0-.3.1-.4.1h-.4c-.1-.1-.2-.1-.2-.2l-.2-.2c-.1-.1-.1-.1-.1-.2s0-.1-.1-.2V81c0-.1 0-.1.1-.2 0-.1.1-.2.1-.2 0-.1.1-.2.1-.2 0-.1.1-.2.1-.2 0-.1 0-.2.1-.3 0-.1 0-.2.1-.3V79c0-.1 0-.2-.1-.3l.2-.2.2-.2c-1.6.7-1.6.7-1.5.7.1 0 .1-.1.2-.1s.1-.1.2-.1.2 0 .2-.1h1.2c.1 0 .2 0 .2-.1.1 0 .2-.1.2-.1.1 0 .2-.1.2-.1.1 0 .2-.1.2-.1.1-.1.6-.2.7-.2.2 0 .3 0 .5-.1.2 0 .3-.1.5-.1.2-.1.3-.1.5-.2.1-.1.3-.1.4-.2.1-.1.3-.1.4-.2.1-.1.3-.2.4-.3.1-.1.3-.2.4-.3.1-.1.3-.2.4-.3.1-.1.3-.2.4-.3.1-.1.3-.2.4-.3.1-.1.3-.2.4-.3.1-.1.3-.2.4-.3.1-.1.3-.2.4-.3.2-.1.3-.1.5-.2s.3-.1.5-.2c.1-.1.3-.2.4-.4.1-.1.3-.2.4-.3.1-.1.3-.2.4-.3.1-.1.3-.2.4-.3.1-.1.3-.2.4-.3.1-.1.3-.2.4-.3.1-.1.3-.2.5-.3.1-.1.3-.2.4-.3.2-.1.3-.2.5-.3.1-.1.3-.2.4-.3.1-.1.3-.2.4-.4.1-.1.3-.2.4-.4.1-.1.3-.2.4-.4l.4-.4.4-.4.4-.4c.2-.1.4-.2.5-.3.2-.1.3-.2.5-.4.2-.1.3-.3.5-.4.2-.1.3-.3.5-.4.2-.1.3-.3.5-.4.2-.1.3-.2.5-.4.2-.1.3-.3.5-.4.2-.1.3-.2.5-.4.2-.1.3-.2.5-.3.2-.1.3-.2.5-.3.2-.1.3-.2.5-.3.2-.1.3-.2.5-.2.2-.1.3-.1.5-.2.2 0 .4-.1.6-.1.2 0 .4-.1.6-.1h.6c.1 0 .2-.1.3-.1.1 0 .2-.1.3-.1.1 0 .2 0 .3-.1h4.8c.2-.1.3-.1.5-.1s.3-.1.5-.1.3-.1.5-.1.3 0 .5-.1h5.5c.2 0 .3 0 .5-.1.1 0 .1-.1.2-.1s.1-.1.2-.1.1-.1.2-.1.1-.1.2-.1l.1-.1c.1 0 .1-.1.2-.1s.1-.1.1-.1l.1-.1c.1 0 .1-.1.1-.1.1 0 .1-.1.1-.1l.1-.1.1-.1.1-.1.1-.1.1-.1.1-.1c0-.1 0-.3-.1-.4 0-.1 0-.3-.1-.4 0-.1-.1-.3-.1-.4 0-.1-.1-.3-.1-.4 0-.1-.1-.3-.1-.4 0-.1-.1-.3-.1-.4-.1-.1-.1-.3-.2-.4-.1-.1-.1-.3-.2-.4-.1-.1-.1-.2-.2-.4-.1-.1-.2-.2-.2-.3l-.3-.3-.3-.3-.3-.3-.3-.3c-.1-.1-.2-.2-.4-.2.6-.5.5-.5.4-.6zm-32.4 15.8c-.1.1-.2.1-.2.1-.1 0-.2.1-.2.1-.1 0-.2.1-.3.1-.1 0-.2.1-.2.1-.1 0-.2.1-.3.1-.1 0-.2.1-.3.1-.1 0-.2.1-.3.1-.1 0-.2.1-.3.1-.1 0-.2 0-.3.1-.1 0-.2 0-.3.1-.1 0-.2 0-.3.1-.1 0-.2 0-.2.1-.1 0-.2.1-.3.1-.1 0-.2.1-.2.1-.1 0-.2.1-.2.1-.1 0-.2.1-.2.1h-.7c-.1 0-.1 0-.1-.1l-.1-.1-.1-.1-.1-.1-.1-.1-.1-.1-.1-.1c0-.1 0-.1-.1-.2 0-.1 0-.1-.1-.2V72l.1-.1v-1.5c0-.1 0-.1.1-.2 0-.1.1-.1.1-.2s.1-.1.1-.1l.1-.1.1-.1c.1 0 .1-.1.2-.1s.1 0 .2-.1h1.4c.1 0 .1 0 .2-.1.1 0 .1 0 .1-.1.1 0 .1-.1.2-.1l.1-.1c.1 0 .1-.1.1-.1.1 0 .1-.1.1-.1l.1-.1c.1 0 .1-.1.1-.1l.1-.1h1.4c.1 0 .1 0 .1-.1 0 0 .1 0 .1-.1.1 0 .1 0 .1-.1l.1-.1c.1 0 .1-.1.1-.1l.1-.1.1-.1c.1.1.1.2.2.2 0 .1.1.2.1.3 0 .1.1.2.1.2v.9c0 .1 0 .2-.1.3 0 .1-.1.2-.1.3 0 .1-.1.2-.1.3 0 .1-.1.2-.1.3 0 .1-.1.2-.1.3 0 .1-.1.2-.1.3 0 .1-.1.2-.1.3 0 .1-.1.2-.1.3 0 .1-.1.2-.1.2.6-.4.6-.3.6-.2zm2.5-9.1c0 .1 0 .2-.1.3 0 .1-.1.2-.1.2 0 .1-.1.1-.2.2l-.2.2c-.1.1-.1.1-.2.1s-.2.1-.3.1c-.1 0-.2.1-.3.1-.1 0-.2 0-.3.1-.1 0-.2 0-.3.1-.1 0-.2 0-.3.1-.1 0-.2 0-.3.1-.1 0-.2 0-.3.1-.1 0-.2 0-.3.1-.1 0-.2.1-.3.1-.1 0-.2.1-.3.1-.1 0-.2.1-.3.1-.1 0-.1.1-.2.1s-.1 0-.2.1c-.1 0-.1 0-.2.1h-1.6c-.1 0-.1 0-.2-.1-.1 0-.1 0-.2-.1-.1 0-.1-.1-.2-.1s-.1-.1-.2-.1-.1-.1-.2-.1v-2.2c0-.1 0-.1.1-.2 0-.1 0-.1.1-.2 0-.1.1-.1.1-.2s.1-.1.1-.2l.1-.1c.1 0 .1-.1.2-.1s.1-.1.2-.1c0 0 .1 0 .2-.1h1.3s.1 0 .1-.1c0 0 .1 0 .1-.1.1 0 .1-.1.2-.1h.2c.1 0 .1 0 .2-.1.1 0 .1 0 .2-.1.1 0 .1-.1.2-.1s.1 0 .2-.1c.1 0 .1-.1.2-.1s.1-.1.2-.1.1-.1.2-.1.1 0 .2-.1c.1 0 .1 0 .2-.1h1c.1 0 .2 0 .2.1h1.2s.1 0 .1.1l.1.1.1.1.1.1c0 .1 0 .1-.1.2v.6c0 .1 0 .1.1.2 0 .1 0 .1.1.1 0 .1 0 .1.1.2 0 .1 0 .1.1.2v.5c0 .1 0 .1-.1.1 0 .1-.1.1-.1.2l-.1.1c-.2-.3-.3-.2-.3-.2zm-218-5.3l.4.1-.4.2c.1.1.1.2.2.2.7.9 1.5 1.7 2.5 2.4.2.1.7.3 1.6.5.4.1 1 .3 1.2.4.3.4.2.7.2.9-.1.7.1 1.1 1.3 1.8 1.1.6 3.1 1 4.7 1.4l.6.1c.7.2 1.2.3 1.7.5.6.2 1 .3 1.5.3.7 0 1.3-.3 2.2-1.2.5.4.9.7 1.3.7 1.2 0 1.8-1.4 2.3-3 .6-1.9.6-3.8-.2-5.1-.7-1.2-1.9-2-3.6-2.4-1.2-.2-2.4-.3-3.8-.3-1 0-2.1.1-3.1.1-1 .1-1.9.1-2.8.1-2.3 0-4.9-.3-7.6-2.5l-.2-.2-.2.1c-.4.1-.6.3-.8.7-.4.8.1 1.9.4 3 .4.5.7 1.1.6 1.2zm-16.3 23.2c-.1.1-.1.2-.1.3 0 .3.1.6.4.8.1.8.5 1.6 1.2 2.5 1.7 2.1 5.3 3.9 7.8 3.9.5 0 .9-.1 1.2-.2 1.4-.5 2.8-.9 4.1-1.3l3-.9c.4.3.7.5.7.8.1.4-.5.9-1.1 1.5-.8.7-1.6 1.5-1.6 2.5-1.4 1.2-2.6 2.7-3.7 4.2-.6.8-1.3 1.7-2 2.5-1.8 2-2 5.6-.5 10.6.4 1.3 1.3 1.6 1.9 1.6 3.8 0 11.5-10.2 12.1-12.9l.1-.4-.4-.1c-1-.2-2 0-2.9.5-.8.5-1.1.5-1.4.5h-.3c-.3 0-.8 0-1.5.3-.4.1-.8.2-1.1.2-.2 0-.5-.1-.6-.2-.1-.3.1-1.1.9-1.9 1-1 1.8-2 2.5-3l1.2-1.5c1-1.2 1.8-1.7 2.7-2.3.5-.4 1.1-.8 1.9-1.3.4-.4.9-.7 1.4-.9 1-.6 1.9-1.2 2.5-2.3.2-.5.7-.6 1.6-.9.8-.2 1.6-.4 2.3-1.2 1.8-2.2 5.4-3.9 8.2-4.7 2.4-.7 7.1-3.8 7.8-6.9.3-1.3-.2-2.5-1.3-3.4-1.3-1.1-3-1.7-4.8-1.7-2.6 0-5.6 1.1-9.3 3.2-5 3-9.9 5.8-15.1 7.5l-.7.2c-2.2.7-4.4 1.5-6.6 2-1.2.3-2.4.4-3.8.4-1.1 0-2.1-.1-3.2-.2s-2.3-.2-3.7-.2h-.6v.4c.1.7.3 1.4.8 2z"/><path class="st0" d="M377.4 111.8c-.6-.5-1.2-1.1-1.8-2l-.3-.2c-.8-.2-1.6-.6-2.4-1-1-.5-1.9-1-2.9-1.1-.8-.1-1.6.4-2.4 1-.7.5-1.5 1-2.2 1-.3 0-.7-.1-1-.3-.5-1.3.3-2 1.6-3.1.3-.3.7-.5 1-.8 1.1-1 2.1-2.1 3-3.2.8-.9 1.6-1.8 2.5-2.7l.1-.1v-.1c.9-3.1-1.1-6.1-6.1-8.8-1-.5-3.1-.6-3.8-.6-1.1 0-2.2.1-2.7.3-.7.2-1.4.5-1.5 1.1-.1.7.6 1.1 1.4 1.6.5.3 1.1.8 1.3 1.1 1.4 3-2.1 7-3.8 9l-.3.4c-1.7 2.5-3.7 4.9-6.1 6.9l-.2.1v.2c.1 1.2-.5 1.5-1.7 2-.6.3-1.3.5-1.8 1.1-2 3-5.3 3.8-8.5 4.6-1.2.3-2.4.6-3.5 1h-.1c-1.7.6-6.4 2.2-9.8 2.2-2.2 0-3.5-.6-3.9-1.9l-.5-.5-.5.6c-.4.4-.5.9-.5 1.5.2 1.6 2.4 2.9 3.9 3.8.1.1.3.2.4.2 0 .8.3 1.6 1 2.3 1 1.2 2.6 2 3.9 2 .4 0 .8-.1 1.1-.2.4-.2 1-.3 1.7-.4.7-.1 1.5-.2 2.2-.5 1.1-.4 2-1 2.8-1.5.8-.5 1.5-.9 2.4-1.3 1-.4 2.2-.8 3.5-1.2 2.7-.8 5.7-1.7 7.5-3.4.3.1.6.1 1.1.1 2.2 0 6.4-1 7.7-1.3.9-.3 1.9-.4 3.1-.4 1.1 0 2.1.1 3.1.2s2.1.2 3.2.2c.9 0 1.7-.1 2.4-.2.5-.1 1.1-.2 1.8-.2 2-.2 4.3-.4 5.4-2.6 1.3-2.9.5-3.7-.8-4.9zM194.8 74l.1-.1.2-.1c2.1-.9 3.3-3 4.5-5l.4-.6c1.8-1.9 1.3-5 .8-7.6l-.1-.6c-1.4-1.6-3-3.4-5.1-3.6h-.4c-.5 0-.9.2-1.4.4-.4.2-.9.4-1.4.5-.8.2-1.5.3-2.2.5-.8.1-1.5.3-2.2.5-.4.9-1.3 1-1.7 1h-.2l-.1.4-.6.1c-1.4.2-2.4.8-3.5 1.4l-.2.1c-1.8.4-3.5 1.2-5.2 2.1-1.8.8-3.6 1.7-5.6 2.2l-.5.1-.3-.3c-1.1-1.1-1.1-2.5-1-3.7 0-.7 0-1.3-.1-1.8v-.4c.1-.9.4-1.8.6-2.6.6-2.2 1.2-4.3.1-6.2-.1-.2-.3-.5-.4-.8-.1-.3-.3-.8-.5-.8h-.2l-.3-.1c-.5-.2-.8-.4-1-.7-.2-.2-.4-.3-.6-.4-3.3-.2-6.5.8-8.8 2.6-.4.8-1 1.5-1.6 2.3-.6.7-1.1 1.4-1.4 2-.5 1.5.3 2.7 1.4 4.2 1.9 1.1 3.1 3.3 3.4 6.6v.2l-.1.2c-.2.4-.1 1-.1 1.6.1.8.1 1.6-.2 2.4-.3 1-1.3 1.4-2 1.7-.4.2-.8.4-1 .6l-.2.3-.3.1c-2.1.6-4.2 2.3-5.2 3.7l-.3.4h-.4c-.8 0-1.6.7-2.4 1.5-.3.3-.6.6-.9.8l-.6.5-.5-.5c-1.2-1.2-1.9-2.9-2.6-4.5-.3-.7-.6-1.5-.9-2.2l-.1-.2V72c0-.6-.1-1.3-.3-2-.1-.6-.3-1.3-.3-2-2.1 2.2-4.2 5.1-6.1 8.6l-2.6 5.2c-.7 4.1-.1 7.8.7 11.1.5 1 .8 2 1.2 2.9.6 1.8 1.2 3.4 2.4 4.6l1.1 1.1c1.4 1.4 2.7 2.8 4.6 2.5h.9c2.1 0 4.8-.8 5.9-3.2l.2-.5h.5c.2-.1.5-.3.9-.3.2 0 .6.1.9.4.8.9 1.8 1.2 3 1.6.8.3 1.7.5 2.5 1l.1.1c.9.4 2.4 1.2 2 2.8v.1c-.7 2.1-.6 5.1-.4 6.6v.2c-.4 2.2-.5 4.5-.5 6.7 0 1.1 0 2.3-.1 3.4.2 1.1.2 2.1.1 3.1 0 1.1-.1 2.1.2 2.9l.1.2v.2c-.6 3.2-.6 6.5 0 9.8v.2l-.1.2c-.3.9-.2 1.7 0 2.7.1.9.3 1.7.1 2.7.2.4.3.9.4 1.3.2.7.3 1.1.7 1.3.1 0 .4-.3.5-.4.4-.3.8-.7 1.3-.9.4-.1.6-.3.9-.8.3-.4.6-.9 1.1-1.2 1.1-1.7 2.1-3.8 3-5.5 1.4-4.4 2.6-8.7 2.9-13.4v-.2l.1-.2c.3-.7.2-1.5.1-2.4-.1-1-.2-2.1.2-3.1-.1-1-.2-2.1-.3-3.1-.1-1.8-.2-3.5-.8-5.1-.3-1-.1-1.9 0-2.7.1-.9.2-1.8-.2-2.5l-.1-.3.1-.3c.2-.7.1-1.5 0-2.3-.1-.9-.2-1.8 0-2.7l.1-.3.3-.2.4-.4c.4-.4.9-1 1.9-.9 1.1-.7 2.2-.8 3.2-.8.6 0 1.1-.1 1.7-.2h.2c1.1 0 1.9-.6 2.8-1.2.8-.6 1.7-1.2 2.8-1.4.6-.3.9-.8 1.3-1.4.2-.2.3-.5.5-.7.5-.9.8-2.1 1-3.3-.5-1.5-1.7-2.6-2.9-3.8l-.8-.8-.1-.3c-.2-1.1.6-1.8 1.1-2.3.4-.3.8-.7.9-1.1l.1-.3.3-.2 3.3-1.8c3-1.2 5.8-2.7 7.9-5zm-34.9 7.9c-.1 1.2-.2 2.3 0 3.3v.2l-.5 2.9-.2.2c-1.3 1.2-2.7 1.6-4 1.9-1.4.4-2.6.7-3.4 1.9l-.3.4h-.4c-.2.1-.3.1-.5.1-.3 0-.5-.1-.8-.3-.6-.4-.7-1.1-.8-1.6 0-.4-.1-.6-.2-.7l-.2-.3v-.4c0-1.4-.1-3.2-1.2-4.4l-.3-.4.2-.4c.7-2 2.1-2.7 3.5-3.3.8-.4 1.5-.7 2.1-1.3l.2-.2.2-.1c.6-.2 1.3-.5 1.9-.9 1.1-.6 2.2-1.2 3.7-1.2h.5l.5 1.1v.2c.2 1.2.1 2.3 0 3.3zm16.1-9.8c-.4.8-.8 1.7-1.1 2.5l-.1.2-.2.2c-.3.3-.6.5-.8.8-1 1-1.9 1.8-2.4 2.8l-.3.6-.6-.1c-1.5-.3-1.6-1.9-1.7-3.1 0-.3-.1-.7-.1-.9l-.1-.4.3-.3v-.9l.1-.2c.8-1.4 2.1-1.8 3.2-2.2.4-.1.8-.3 1.2-.4l.2-.1h.2c.5 0 1.2 0 1.9.7l.4.4-.1.4zm-67-3.2l-.2-.1c-.7-.3-1.4-.8-2.1-1.3-1.4-1-2.9-2.1-5-2.3-.4-.1-.8-.2-1.3-.2-2.3 0-4.1 1.6-5.6 3-1 .9-1.9 1.7-2.8 2.1l-.3.1-.1.2c-.8 1.3-2.1 1.6-3.6 2-1.3.3-2.8.7-4 1.8-1.2.1-1.9.9-2.4 1.6-.5.7-.8 1-1.3 1H80l-.3.3c-.4.4-.6.5-.9.5-.3 0-.7-.1-1.1-.2-.6-.2-1.2-.3-1.9-.3-.5-.3-1-.4-1.5-.4-.6 0-1.1.1-1.6.3-.5.1-.9.2-1.2.2l-.2-.2-.3.2c-1 .7-2.1 1-3.3 1.3-1.2.3-2.4.6-3.6 1.3-1.6-.1-3.1.5-4.6 1-.9.3-1.7.6-2.6.8-1.5.4-4.1.7-4.8.7h-.3c-.2 0-.5 0-.8.3-.1 0-.2 0-.4.1-.3 0-.7.1-1 .1h-.2c-1.1.4-2.2.6-3.4.9-1.1.2-2.2.5-3.3.8-.3-.1-.6-.1-1-.1 0 0-2.5 0-3.2.5-.2.1-.8.3-1.1.4-.2.1-.4.1-.6.2-.8-.2-1.6-.1-2.4.1-.4.1-.9.2-1.3.2h-.2c-.6 0-1.5 0-1.6.8-.1.8.7 1.1 1.3 1.3h.1c.5.3 3.6 1.8 5.1 2.3l.2.1c.4 0 .8.1 1.2.1 1.1.1 2.4.2 3.7.2 2.4 0 4.2-.5 5.5-1.4 1.9-.5 3.9-.9 6-1.3 2.6-.5 5.4-1.1 8-1.9l.2-.1c.1-.1.3-.2.4-.3.5-.4.9-.7 1.4-.6l.2.1 1.3-.3c1.9-.4 3.9-.9 5.8-1.5 1.4.1 2.8-.3 4.1-.8 1.2-.4 2.3-.8 3.5-.8h.3l.2-.2c.4-.3.7-.3 1.1-.3h.4c.2 0 .5 0 .9-.1h.1c2.5-1 4.7-1.5 7.1-2h.2c-.2 1.1-.7 1.8-1.6 2.3l-.3.2-.1.4c-.1.4-.5 1-.9 1.5-.3.4-.6.9-.8 1.3l-.7 1.5 1.6-.3c1.7-.3 3.3-.5 5-.6 2.8-.3 5.6-.6 8.6-1.4 2.9-.3 6.2-.5 8.8-2.5 1.8-.2 2.5-1.8 2.9-3 .2-.4.3-.7.5-1l.1-.1v-.2c.5-2.8-.7-5.6-3.7-8.3zM27.1 86.2c.5-1.6.9-3.1.8-4.8l-.1-.5-.5-.2c-3-1-6.6-.2-9.2 2.2-3.6 2.5-6.3 5.7-7.4 8.9-1 1.5-2 3.4-2.3 5.6v.2l.1.2c.3.8.5 1.7.7 2.6.2 1 .4 2 .8 3l.1.2.2.1c.3.3.5.6.8 1.1.3.6.6 1.2 1.2 1.7 1.3 1.1 2.5 1.5 4 1.5.3 0 .7 0 1-.1 2 0 3.2-1.5 4.2-2.8.4-.4.7-.9 1.1-1.2l.1-.2.1-.2c.2-.6.3-1.2.3-1.7.2-1.1.3-1.9 1-2.8l.1-.2v-.2c.3-1.2.6-2.3.8-3.4.5-2 1.1-4.1 1.4-6.2.2-1 .5-1.9.7-2.8z"/><path class="st0" d="M95.3 131.5c-.3-.2-.6-.4-.8-.7l-.2-.3h-.4c-.7-.1-1.5-.2-2.3-.4-1.2-.2-2.4-.5-3.6-.5-1.1 0-2 .2-2.9.7-1.2.1-2 .9-2.6 1.5-.6.6-1 1-1.6 1h-.3l-.2.2c-.9.7-2 1-3.1 1.4-1.2.4-2.5.8-3.6 1.6l-.1.1c-.3.3-.6.2-1.1.1-.3-.1-.6-.1-.9-.1-.6 0-1.2.2-1.6.7-.2-.1-.5-.4-.7-.6-.3-.3-.6-.6-.9-.8-.3-1.2-.4-2.3-.4-3.9.8-.7 1.9-.8 3.2-1 1.9-.2 4.1-.4 5.4-2.8.7-1.4.5-3-.4-4l-.1-.1-.1-.1c-.2-.1-.5-.3-.7-.4-.8-.4-1.6-.9-2.5-1-.3-.1-.6-.1-.9-.1-1.3 0-2.4.7-3.4 1.2-.1.1-.3.1-.4.2-.4-.5-.7-1.1-.8-1.9v-.4c-.1-.8-.2-2.4-.3-3.3 0-.4 0-.7.2-1l.1-.1v-.1c.2-1.2 1.2-1.5 2.9-2 .9-.2 1.9-.5 2.7-1l.2-.1c.3.1.7.1 1-.1 2.4-1.1 4.4-3.8 4.9-6.7v-.3c-.3-1.7-1.9-3.3-3.5-4.6l-.2-.2H75c-.7 0-1.1-.4-1.8-1-.5-.5-1.1-1-1.9-1.2-.2-.1-.4-.3-.6-.5.2-.1.4-.3.6-.4 1.3-.9 2.6-1.8 4-3.2.8-.5 2-1.6 3-2.6l.1-.1.1-.1.3-.6c.5-.8 1.2-2.1.1-3.3-.8-1.6-2.2-2.5-3.9-2.5-2.1 0-4.4 1.3-5.6 2.6-.7.7-1.5 1.1-2.3 1.5-1.1.6-2.3 1.1-3.1 2.5-.2-.1-.4-.1-.6-.1-1 0-2 .5-2.7 1-.8-.1-1.5 0-2.1.1-.5.1-.9.2-1.4.2h-.4l-.3.4c-.4.6-1 .7-2 .7-.8 0-1.6 0-2.4.5H52l-.2-.4-.8.5c-1.1.5-2.2.4-3.2.4h-1c-.7 0-1.7 0-2.7.3l-.1.1h-.3c-.2 0-.5 0-.7-.1-.3 0-.6-.1-.9-.1-1.3 0-1.8.7-2 1.4l-.1.3.1.3c.4 1 1.2 1.3 1.8 1.4.1 0 .4.1.4.1v.1l.1.3.2.2c1.6 1.2 3.3 1.4 5 1.6.7.1 1.3.2 2 .3h.2c.6 0 1.2-.2 1.7-.3.5-.1.9-.3 1.3-.3.3 0 .5.1.7.4.5 1.2 0 1.7-1.4 2.7-.7.5-1.6 1.2-2 2.1-1.8 2.6-4.6 4.1-7.3 5.5l-.8.4-.1.3c0 .1-.1.2-.1.3-.2.4-.3.9-.1 1.6-.5.9-.1 1.8.1 2.4.1.3.3.6.3.7v.2l.1.2c1.1 1.9 2.5 2.4 3.5 2.4.9.4 1.9.6 2.8.6 1.6 0 2.9-.6 4.2-1.1 1.2-.5 2.4-1 3.7-1h.2c0 .1.1.2.1.3v.1c.5 1.6.8 3 .8 3.5.1 1-.1 2.1-.2 3.1-.6.1-1.2.3-1.7.4-1.2.3-2.3.6-3.4.5h-.3l-.2.1-.9.3c-.6.1-1.3.3-1.9 1-.5.1-.9.1-1.4.1h-.6c-.5 0-1.2.1-2 .4l-1.1.5.9.9c.6.6 1.3.7 1.9.8.4.1.7.1.9.3l.2.2h.3c.6.1 1.1.3 1.7.5.8.3 1.6.6 2.6.6.3 0 .6 0 .9-.1.7.1 1.5.1 2.2 0 1-.1 1.7-.3 2.4.5 0 .3.1.7.1 1 .1.8.2 1.5 0 1.9-.3-.1-.7-.2-1.2.1-1 .6-1.9.6-3.1.6-.6 0-1.2 0-1.8.1h-1.3c-.3 0-.8 0-1.3.3-.6-.1-1.2-.2-1.8-.2-2 0-3.7.5-5.5 1-1.8.5-3.6 1.1-5.4.9h-.4v.1c-.5-.4-1.1-.6-1.7-.7-.4-.1-.9-.2-1.2-.4l-.1-.1c-.7-.4-1.4-.6-2.1-.6-1.9 0-3.5 1.3-4.8 2.5l-.3.3v1.5c0 1.1-.1 2.2.3 3.4.4 2.1 2.2 2.6 3.1 2.8 1.2 1.1 2.5 1.3 3.4 1.3.5 0 1-.1 1.5-.1s1-.1 1.5-.1h.3l.2-.5c0-.1.1-.1.5-.2s1-.2 1.4-.8h.7c.9 0 1.7-.3 2.5-.5.5-.2.9-.3 1.4-.4 1 .1 1.9-.3 2.6-.6.6-.2 1.1-.5 1.6-.5h.2l.2-.1c.2-.1.6-.1 1 0h.7c.3 0 1.1 0 1.8-.6 1 .1 2.1-.1 3.2-.3.8-.1 1.6-.3 2.4-.3h.2c.8-.2 1.5-.4 2.4-.7 2.3-.7 4.6-1.3 6.9-1.3h.2c1.9-.6 4.1-.7 6.5-.8 2-.1 4.1-.2 6.1-.6 1.6.5 3.5.5 5 .5h.1c.5-.1 1 .1 1.5.3.6.2 1.1.4 1.7.4.3 0 .5 0 .8-.1.4.2.8.3 1.3.3.9 0 1.7-.4 2.4-.7.5-.2.9-.4 1.3-.5h.2l.2-.2c1.8-1.6 3.8-3.5 3.8-6.7-.1-1.3-1-2-1.7-2.5zm-37.1-21.6h-.5c.6-.6 1.2-1.1 1.8-1.7.9-.9 1.7-1.7 2.7-2.3l.3-.2.1-.4c.1-.4.3-.5.7-.8.2-.1.5-.3.7-.5.7.6 1.1 1.5 1.4 3.1-.3.7-.8.9-1.7 1.3-.4.1-.8.3-1.1.5-1.6.1-3.1.4-4.4 1zM23 35.8c.1.2.2.4.4.6 1.3 2.1 3.2 3.4 6 4.1C31 41.9 33 42 34.8 42h1.3c.5 0 1.1 0 1.7.1h.2l.2-.1c1.4-.6 2.8-1.3 4.1-1.9 1.3-.7 2.6-1.3 4-1.9l.1-.1.1-.1c.5-.4 1.2-.7 2-1 .4-.1.7-.3 1.1-.5l.2-.1.1-.1c.1-.1.4-.2.6-.3.3-.1.6-.2.9-.4.5 0 1.2-.3 1.7-.5 0 .2 0 .4.1.7.1 1.8.3 3.6 0 5.1v.4c-.1.1-.5.2-.8.2-.4.2-.9.3-1.4.5h-.1l-.1.1c-.4.3-3 1.6-5.4 1.6-.7 0-1.4-.1-1.9-.3l-.2-.1h-.2c-.8 0-1.1.4-1.3.7-.4.7.1 1.5.2 1.8l.1.2.2.1c.6.4.9 1 1.3 1.7.6 1 1.3 2.2 2.7 2.5 1.4 1.2 2.2 1.9 2.9 2.1h.4c-1 2-2.1 4-3.3 6-1.9 3.3-3.9 6.7-5.2 10.4v.4c0 .4.1 1 .1 1.5.1 2.6.1 6.5 3.7 7.5.4.1.8.2 1.2.2 1.1 0 2-.6 2.7-1.2.4-.3.8-.6 1.2-.8l.3-.1.2-.3c.6-1 1.6-1.9 2.9-2.7.5-.3 1-.3 1.5-.4.4 0 .9-.1 1.5-.2 1.3.5 2.5.9 3.5 1.1.4.4 1 .5 1.7.5h.2c.1 0 .2 0 .3.2l.2.4h.5c.4 0 .8.2 1.3.4.6.3 1.3.6 2.1.6.4 0 .7-.1 1-.2.4.2.7.3 1.1.3.8 0 1.4-.4 1.9-.7.5-.3.9-.5 1.4-.5h.2l.2-.1c2-.8 3.9-2.3 5.4-4.4.3-.5.4-.9.5-1.4.1-.5.2-.8.4-1l.2-.2v-.3c.3-1.6 0-3.7-1.5-4.8 0-.1 0-.1.1-.4.1-.3.3-.8.2-1.4 1.3-1.8 2.8-4 3.8-6.7l.1-.3-.1-.3c-.6-1.6-1.9-2.7-3-3.6-.4-.3-.8-.7-1.2-1l.1.3-.1-.1c-.6-.3-1.4-.5-2.1-.5-1.4 0-2.6.6-3.2 1.6-.7.1-1.2.5-1.5.8-.2.1-.4.3-.5.3l-.3.1-.3.3c-.4.7-1.2 1-2 1.3-.8.3-1.6.6-2.3 1.3l-.1.1-.1.1c-.2.3-.5.7-.9.9l-.2.1c-1.3 1.1-2.6 2-4 2.8-1.2.7-2.4 1.5-3.7 2.5H55l-.1.2c-.5.3-.8.7-1.1 1h-.2l.1-.4c.1-.3.1-.4.3-.5.3-.4.7-.7.7-1.6.8-1.1 1.5-2.2 2.3-3.3.8-1.2 1.6-2.3 2.4-3.5 1.4-1 3.1-2 4.8-2.8l.2-.1.1-.2c.3-.5.7-.6 1.5-.8.7-.2 1.5-.4 2.2-.9 1.6 0 2.9-.9 4-1.7.3-.2.7-.4 1-.6l.2-.1.1-.2c.7-1.3 1.5-2.8.8-4.8l-.1-.3-.2-.2c-.8-.6-2.7-1.9-4.6-2.8h-.1c-.3-.2-.8-.2-1.5-.2h-2.5c0-.9-.1-1.7-.1-2.5-.1-1.1-.2-2.2-.1-3.3.4-.2 1.2-.3 1.7-.4.5-.1 1-.2 1.3-.4 2.4-.9 5.1-1.3 7.9-1.6 2-.3 4.2-.5 6.2-1 .3 0 .5 0 .8.1.9.1 1.8.2 2.7.2 1.1 0 2-.1 2.8-.4l.2-.1.1-.1c.8-.7 2.2-1.9 2.7-3.7v-.1c.1-1.3-.6-2.1-1.1-2.9-.4-.5-.7-.9-.7-1.3V19l-.5-.2c-.4-.2-.7-.3-1.1-.5-1.1-.5-2.3-1.1-3.5-1.3-.9-.2-2-.1-3.1-.1-.7.1-1.3.1-2 .1h-.4l-.1.3c-.3.3-1.4.7-2.3.8l-.2.1c-1.9.9-3.8 1.6-5.7 2.4-.7.3-1.5.6-2.3.9-.5 0-.9.3-1.5.5-.5.2-1.1.5-1.6.6.5-1.7.7-3.5.8-5.3.1-1.2.2-2.3.4-3.4l.1-.3-.1-.3c-.3-.5-.4-1.1-.5-1.6-.2-.9-.4-2-1.4-2.7-.3-1.1-1.4-1.5-2.1-1.6-.3-.1-.7-.2-.8-.3l-.3-.2h-.4c-1 .1-2.1-.2-3.2-.5-1.2-.3-2.6-.6-4-.6h-.4l-.2.4c-1.1 1.9-2.9 3.2-4.7 4.6-.5.4-.9.7-1.4 1.1l-.8.6.7.7.3.3c.8.8 2 1.9 3.2 1.9.8.4 1.3 1.2 1.7 2.6l.1.2c.4.7.4 1.5.4 2.4 0 .7 0 1.5.2 2.3-.2.9 0 1.8.2 2.4.2.8.3 1.2 0 1.7-.3.1-1.1.3-1.6.4-1.3.3-2.9.7-3.9 1.3-1-.1-1.9.4-2.6.8-.7.4-1.2.7-1.9.5h-.4l-.3.2c-.2.1-.4.2-.7.3-.4.1-1 .3-1.5.7l-2.7.1-.2.1c-.9.6-2 .7-3.1.9-1 .1-2 .3-3 .7-1.6-.5-3.9-.9-4.9-1.1h-.3c-.1 0-.4-.1-.6-.2-.5-.2-1.1-.5-1.7-.5-.6 0-1.4.2-1.9 1.3l-.1.2v.2c.2 1.2.7 2.1 1.2 2.9zm32.7 32.9c.1-1.6 1.4-2.8 2.8-4.1.5-.4.9-.9 1.3-1.3 1.3-.3 2-1.2 2.7-1.9.5-.5.9-1 1.5-1.4.6-.3 1.2-.6 1.8-1 1.1-.7 2.1-1.3 3.4-1.4h.1c-.9 2.5-2.6 6.1-5.7 7.5l-.6.1v.5c0 .4-.2.5-1.2.7-.7.2-1.4.3-2 1-.5.1-1 .3-1.4.5-.9.3-1.8.6-2.7.8z"/><path class="st1" d="M458.4 123.8v-.1h.3v-.1h.3v-.1h.7v-.1h.5v-.1h.4v-.1h.7v-.1h.7v-.1h.4v-.1h.6v-.1h.4v-.1h.3v-.1h.2v-.1c0-.1.3.1.3 0v-.1h.3v-.1h.4v-.1c.1 0 .3.1.4 0v-.1h.2v-.1h.4v-.1c.1-.1.3 0 .4 0v-.1h.4v-.1h.5v-.1h.1c.1 0 .3.1.4 0v-.1h.4v-.1h.4v-.1h.8v-.1h.4v-.1h.2v-.1h.3v-.1h.2v-.1h.2v-.1h.2v-.1h.2v-.1h.2v-.1h.1v-.1h.2v-.1h.1v-.1h.1v-.1h.1v-.1h.1v-.1h.1v-.1h.1v-.2h.1v-.1h.1v-.2h.1v-.1h.1v-.2h.1v-.2h.1v-.2h.1v-.2h.1v-.2h.1v-.2h.1v-.2h.1v-.2h.1v-.2h.1v-.3h.1v-.3h.1v-.3h.1v-.3h.1c0-.1-.1-.3 0-.3h.1v-.2h.1c0-.1-.1-.2 0-.3h.1c0-.1-.1-.3 0-.3h.1v-.3h.1v-.3h.1v-.3h.1v-.4h.1v-.4h.1v-.3h.1v-.5h.1v-.3h.1v-.7h.1v-.4h.1c.1-.1 0-.3 0-.3h.1v-.7h.1v-.9h.1v-.6h.1c.1-.2 0-.5 0-.8v-.2h.1v-.5h.1v-.2c.1-.7 0-1.5 0-2.2v-.2h.1v-.9h-.1v-.1h.1v-.6h-.1v-3.5h-.1v-3.9h.1v-1.9h.1v-1.7h.1v-.6h.1V91c.1-.7 0-1.4 0-2.1v-.7h.1v-1.8h.1v-.3c0-.7-.1-1.4 0-2.1v-.2h.1v-1.1h-.1v-1.4h-.1v-.1c-.1-.3 0-.8 0-1.3v-.5h-.1v-.1c-.1-.2 0-.7 0-1.1v-.4h-.1v-.7h-.1v-1h.1v-2h-.1v-.7h-.1v-6h.1v-.1c0-.1-.1-.3 0-.4h.1v-1.3h-.1v-1.1h-.1v-.7h-.1v-3.4h-.1v-.2h-.1V60h-.1v-.2h-.1v-.3h-.1c-.1-.1.1-.3 0-.3h-.1v-.1h-.1V59h-.2v-.1h-.2v-.1h-.2v-.1h-.2v-.1h-.2v-.1h-.3v-.1h-.3v-.1h-.3v-.1h-.2v-.1h-.3V58h-.3v-.1h-.4v-.1h-.3v-.1h-.3v-.1h-.4v-.1h-.3v-.1h-.3v-.1c-.2-.1-.4 0-.5 0v-.1h-.4v-.1c-.1-.1-.3 0-.4 0h-.1V57h-.7v-.1h-.5v-.1h-.6v-.1h-.8v-.1h-.6v-.1c-.1 0-.4.1-.6 0v-.1h-.4v-.1h-1.8v-.1h-.6v-.1h-.8V56h-.8v-.1h-.8v-.1h-1.8v-.1h-2.2v.1h-1.3v.1h-4.3v.1h-1.2v.1h-.8v.1h-.5v.1h-.5v.1h-.5v.1h-.5v.1h-.5v.1h-.4v.1h-.3v.1h-.4v.1h-.4v.1h-.5v.1h-.6v.1h-.7v.1h-.5v.1h-.6v.1h-.6v.1h-.4v.1h-.5v.1h-.5v.1h-.4v.1h-.5v.1h-.5v.1h-.4v.1h-.4v.1h-.3v.1h-.2v.1h-.2v.1h-.3v.1h-.3v.1h-.3v.1h-.3v.1h-.2v.1h-.4v.1h-.5v.1h-.6v.1h-.1c-.2 0-.4-.1-.5 0v.1h-.7v.1h-.3v.1h-.4v.1h-.5v.1h-.4v.1h-.4v.1h-.5v.1h-.3v.1h-.3v.1h-.3v.1h-.3v.1h-.2v.1h-.2v.1h-.2v.1h-.1v.1h-.2v.1h-.1v.1h-.1v.1h-.2v.1h-.1v.1h-.1v.1h-.1v.2h-.1v.1h-.1v.1h-.1v.2h-.1v.1h-.1v.1h-.1v.1h-.1v.1h-.1v.1h-.1v.1h-.1v.1h-.1v.1h-.1v.2h-.1v.1h.3v.1h.4v.1h.3v.1h.4v.1h.8v.1h.5v.1h.6v.1h.7v-.1h1.1V64h1.7v-.1h1.1v-.1h.1v.1h1.4v-.1h.4v-.1h.5v-.1c.1-.1.3.1.4 0v-.1h.3v-.1h.3v-.1h.2v-.1h.3v-.1h.3V63h.3v-.1h.3v-.1h.3v-.1h.2v-.1h.2v-.1h.3v-.1h.3v-.1h.5v-.1h.4v-.1h.7V62h.5v-.1h.3v-.1h.5v-.1h.5v-.1h.4v-.1h.5v-.1h.4v-.1h.3v-.1h.4v-.1h.6V61h.4v-.1h.4v-.1h.5v-.1h.5v-.1h.4v-.1h.7v-.1h.5v-.1h.4v-.1c.1-.1.2 0 .3 0v-.1h.4V60h.4v-.1h.6v-.1h.7v-.1h.6v-.1h.1c.7-.1 1.4 0 2.2 0v-.1h2.3v.1h.6v.1h.5v.1c.1 0 .3-.1.3 0v.1h.2v.1h.2v.1h.2v.1h.1v.1h.2v.1h.1v.1h.2v.1h.2v.1h.1v.1h.2v.1h.1v.1h.1v.1h.1v.1h.1v.1h.2v.1h.1v.1h.1v.1h.1v.1h.1v.1h.1v.1h.2v.2h.1v.1h.1v.2h.1v.3h.1V64h-.1v.2h-.1v.2h-.1v.1h-.1v.2h-.1v.1h-.1v.1h-.1v.1h-.1v.1h-.1v.1h-.1v.2h-.1v.1h-.1v.1h-.1v.2h-.1v.1h-.1v.1h-.1v.2h-.1v.1h-.1v.1h-.1v.1h-.1v.1h-.1v.1h-.1v.2h-.1v.1h-.1v.1h-.1v.1h-.1v.1h-.1v.1h-.1v.1h-.1v.1h-.1v.1h-.1v.1h-.1v.1h-.1v.1h-.1v.1h-.1v.1h-.1v.1h-.1v.1h-.1v.1h-.1v.1h-.1v.1s-.3-.1-.3 0v.1h-.2v.1h-.3v.1h-.2v.1h-.3v.1h-.4v.1h-.2v.1h-.3v.1h-.3v.1h-.2v.1h-.3v.1h-.2v.1h-.2v.1h-.2v.1h-.2v.1h-.2v.1h-.2v.1h-.2v.1h-.2v.1c0 .1-.3-.1-.3 0v.1h-.2v.1h-.2v.1h-.1v.1h-.3v.1h-.1v.1h-.2v.1h-.2v.1h-.1v.1h-.2v.1h-.1v.1h-.2v.1h-.1v.1h-.1v.1h-.2v.1h-.1v.1h-.1v.1h-.1v.1h-.2v.1h-.1v.1h-.2v.1h-.1v.1h-.1v.1h-.1v.1h-.1v.1h-.1v.1h-.2v.1h-.1v.1h-.1v.1h-.1v.1h-.1v.1h-.2v.1h-.1v.1h-.1v.1h-.1v.1h-.2v.1h-.1v.1h-.1v.1h-.1v.1h-.1v.1h-.1v.1h-.1v.1h-.1v.1h-.1v.2h-.1v.1h-.1v.2h-.1v.1h-.1v.1h-.1v.1h-.1v.2h-.1v.1h-.1v.1h-.1v.2h-.1v.3h.6v-.1h1.9v-.1h.8v-.1h.5v-.1h1v-.1h.6V76c.1-.1.3 0 .4 0h.1v-.1h.5v-.1h.3v-.1h.3v-.1h.3v-.1h.2v-.1h.3v-.1h.2v-.1h.4v-.1h.3V75c.1-.1.3.1.3 0v-.1h.6v-.1c.1-.1.3 0 .3 0v-.1h.1v-.1h.2v-.1h.1v-.1h.2v-.1h.1v-.1h.2v-.1h.1V74h.2v-.1h.2v-.1h.2v-.1h.2v-.1h.1v-.1h.2v-.1h.2v-.1h.2v-.1h.2v-.1s.3.1.3 0V73h.4v-.1h.4v.1h.5v.1h.3v.1h.2v.1h.2v.1h.3v.1h.2v.1h.2v.1h.2v.1h.2v.1h.2v.1h.2v.1h.2v.1h.1v.1h.1v.1h.1v.1h.1v.1h.1v.2h.1v.3h.1v.3h-.1v.3h-.1v.2h-.1v.1h-.1v.1h-.1v.2h-.2v.1h-.1v.1h-.2v.1h-.1v.1h-.2v.1h-.2v.1h-.3v.1c-.1.1-.3-.1-.3 0v.1h-.5v.1h-.5v.1h-.1c-.2 0-.4-.1-.5 0h-.1v.1h-.8v.1h-.5v.1h-.7v.1h-.1c-.2 0-.5-.1-.7 0v.1h-.5v.1h-.6v.1h-.8v.1c-.3 0-.6-.1-1 0h-.1v.1h-.9v.1h-1.2v.1h-.3v.1h-.1v.1h-.2v.1h-.1v.1h-.2v.1h-.2v.1h-.4v.1h-.6v.1h-.7v.1h-.4v.1c-.1.1-.2 0-.3 0v.1h-.3v.1h-.6v.1c-.1.1-.5 0-.8 0h-.1v.1h-.5v.1c-.2.1-.4-.1-.5 0v.1h-.6v.1h-.7v.1h-.5v.1h-.5v.1h-.5v.1c-.2.1-.4 0-.5 0h-.1v.1h-.4v.1h-.4v.1h-.4v.1h-.2v.1c-.1.1-.3-.1-.3 0v.1h-.3v.1h-.3v.1h-.5v.1c-.1.1-.4-.1-.5 0v.1c-.1.1-.3-.1-.3 0v.1h-.3v.1c-.1.1-.2 0-.3 0v.1h-.2v.1h-1.2v.1h-.1v.1h-.2v.1h-.2v.1h-.4v.1h-.4v.1h-.4v.1h-.4v.1h-.6v.1h-.6v.1h-.4v.1h-.3v.1h-.3v.1h-.2v.1h-.4v.1h-.2v.1h-.3v.1h-.2v.1h-.3v.1h-.2v.1h-.2v.1h-.2v.1h-.1v.1h-.2v.1h-.2v.1h-.2v.1h-.1v.1h-.2v.1h-.2v.1h-.7v-.1h-.2v.1h-.4v.1h-.2v.1h-.2v.1h-.3v.1h-.2v.1h-.2v.1c0 .1-.3-.1-.3 0v.1h-.3v.1h-.2v.1h-.2v.1h-.2v.1h-.2v.1h-.2v.1h-.2v.1h-.3v.1h-.3v.1h-1.3v-.1h-.2v-.1h-.2v-.1h-.1V86h-.1v-.1h-.1v-.3h-.1v-2.1h.1v-.4h.1v-.2h.1v-.2h.1v-.2h.1v-.3h.1V82h.1v-.1h.1v-.2h.1v-.1h.1v-.1h.1v-.1h.1v-.1h.1v-.1h.1v-.1h.2V81h1.9v.1h1.1V81h.4v-.1h.3v-.1h.4v-.1h.4v-.1h.4v-.1h.4v-.1h.3v-.1h.4v-.1h.4v-.1h.3V80h.5v-.1c.2-.1.4 0 .5 0h.1v-.1h.4v-.1h.8v-.1c.1-.1.4.1.5 0v-.1h.7v-.1h.9v-.1h.1c.2 0 .6.1 1 0h.2v-.1h1v-.1c.2-.1.4 0 .5 0h.1V79h.5v-.1h.3v-.1c.1-.1.3.1.3 0v-.1c.2-.1.4 0 .5 0v-.1h.3v-.1h.3v-.1h.3v-.1h.2v-.1h.2v-.1h.1v-.2h.1v-.2h.1v-.3h.1c.1-.1 0-.2 0-.3V77h.1v-.6h.1v-1.1h-.1v-.4h-.1v-.2h-.1v-.1h-.2v-.1h-.1v-.1h-.2v-.1h-.2v-.1h-.2v-.1h-.2V74h-.1v-.1h-.2v-.1c-.1-.1-.3.1-.3 0v-.1h-.3v-.1h-.3v-.1h-.3v-.1h-.8v-.1h-3.1v.1c-.3.1-.7 0-1.2 0h-.3v.1h-1.6v.1h-.3v-.1h-2.7v-.1h-.2v-.1h-.1v-.1h-.2v-.1h-.1V73h-.1v-.1h-.1v-.1h-.2v-.1h-.1v-.1h-.1v-.1h-.1v-.1h-.1v-.2h-.1v-.1h-.1v-.2h-.1v-.2h-.1v-.2h-.1v-.4h-.1v-.4h-.1v-.5h-.1v-.3h-.1v-.4h-.1v-.4h-.1v-.4h-.1v-.3h-.1v-.3h-.1v-.3h-.1v-.4h-.1v-.5h-.1v-.4h-.1V66h-.1v-.6h-.1v-1.1h-.1v-.2h-.1V64h-.1v-.1h-.1v-.2h-.1c-.1-.1 0-.3 0-.3h-.2v-.1h-.2v-.1c-.1-.1-.3.1-.3 0v-.1h-.4V63h-.4v-.1h-.3v-.1h-.3v-.1h-.4v-.1h-.4v-.1h-.3v-.1h-.6v-.1c-.2-.1-.4.1-.5 0v-.1h-.5v-.1h-.5V62h-.4v-.1h-.5v-.1h-2.2v.1h-.6v.1h-.5v.1h-.7v.1h-.6v.1h-.4v.1h-.4v.1h-.4v-.1c-.2-.1-.7.1-1.1 0h-.1v-.1h-.6v-.1h-.2v-.1h-.1V62h-.1v-.4h-.1v-.2h.1v-.3h.1v-.2h.1v-.1h.1v-.1h.1v-.1h.1v-.1h.2v-.1h.2v-.1h.2v-.1h.2v-.1h.2V60h.2v-.1h.3v-.1c0-.1.3.1.3 0v-.1h.2v-.1h.3v-.1h.2v-.1c.1-.1.2 0 .3 0v-.1h.2v-.1c.1-.1.3.1.3 0v-.1h.3V59h.2v-.1h.2v-.1h.3v-.1h.3v-.1h.3v-.1h.4v-.1c.2-.1.4 0 .5 0v-.1h.4v-.1h.4v-.1h.4V58h.4v-.1h.4v-.1h.3v-.1h.7v-.1h.7v-.1h.4v-.1h.4v-.1h.5v-.1h.4v-.1h.5V57h.3v-.1h.2v-.1h.2v-.1h.2v-.1h.2v-.1h.2v-.1h.3v-.1c0-.1.3.1.3 0v-.1h.3v-.1h.3V56h.5v-.1h.4v-.1h.4v-.1h.4v-.1c.1-.1.2 0 .3 0v-.1h.4v-.1h.2v-.1h.2v-.1h.3v-.1h.3V55h.4v-.1h.3v-.1h.2v-.1h.3v-.1h.3v-.1h.2v-.1h.2v-.1h.3v-.1s.3.1.3 0v-.1h.3V54c.1-.1.2 0 .3 0v-.1h.3v-.1h.4v-.1c.2 0 .4.1.5 0v-.1h.2v-.1h.5v-.1h.6v-.1h.5v-.1c.1-.1.4 0 .5 0h.2v-.1c.3 0 .7.1 1.1 0V53h.4v-.1h.7v-.1h.7v-.1h.5v-.1h.7v-.1h.4v-.1h.4v-.1h.5v-.1h.7v-.1h.6V52h.5v-.1h.6v-.1h.6v-.1h.6v-.1h.4v-.1h.3v-.1h.4v-.1h.5v-.1h.4v-.1c.2-.1.4.1.5 0V51c.1 0 .3.1.3 0v-.1h.3v-.1h.3v-.1h.3v-.1h.3v-.1h.5v-.1h1v-.1h.6v-.1h.7v-.1h1V50h.5v-.1h1.2v-.1h1.2v-.1h.4v-.1h.1c.1 0 .3.1.4 0v-.1c.1-.1.6 0 .8 0h.2v-.1h.7v-.1h.6v-.1h.3v-.1h.4V49h.4v-.1c.1-.1.4 0 .6 0v-.1h.8v-.1c.1-.1.3.1.4 0v-.1h.9v-.1h1.2v-.1h.8v-.1h.9v-.1h.5v-.1h.6V48h.6v-.1h.4v-.1h.5v-.1h.4v-.1h.3v-.1h.4v-.1h.5v-.1h.4v-.1c.1-.1.6.1.8 0h.1v-.1h1.4V47h.5v-.1h.1c.1 0 .3.1.4 0v-.1h2.1v.1h.3v.1h.2v.1h.3v.1h.2v.1h.2v.1h.1v.1h.2v.1h.2v.1h.1v.1h.2v.1h.2v.1h.2v.1h.1v.1h.1v.1h.2v.1h.1v.1h.1v.1h.2v.1h.1v.1h.2v.1h.1v.1h.1v.1h.1v.1h.2v.1h.1v.1h.1v.1h.1v.1h.2v.1h.1v.1h.1v.1h.1v.1h.2v.1h.1v.1h.1v.1h.1v.1h.1v.1h.2v.1h.1v.1h.2v.1h.1v.1h.2v.1h.1v.1h.1v.1h.1v.1h.2v.1h.1v.1h.1v.1h.2v.1h.1v.1h.1v.1h.1v.1h.1v.1h.2v.1h.1v.1h.1v.1h.1v.1h.1v.1h.1v.1h.2v.1h.1v.1h.1v.1h.1v.1h.1v.1h.1v.1h.1v.1h.1v.1h.1v.1h.1v.1h.1v.1h.1v.1h.1v.1h.1v.1h.1v.1h.1v.1h.1v.1h.1v.1h.1v.1h.1v.1h.1v.1h.1v.2h.1v.1h.1v.2h.1v.1h.1v.2h.1v.2h.1v.3h.1v.7h.1v.8h-.1v.6h-.1c-.1.1 0 .2 0 .3h-.1v.2h-.1v.3h-.1v.1h-.1v.2h-.1c-.1.1 0 .3 0 .3h-.1v.1h-.1v.2h-.1c-.1 0 0 .3 0 .3h-.1v.2h-.1v.2h-.1v.2h-.1v.3h-.1v.4h-.1v.5h-.1v.5h-.1v.7h-.1v.7h-.1c-.1.3 0 .7 0 1.1v.1h-.1v.8h-.1v3.5h.1v.6h.1v1.3h-.1v2.5h.1v.9h.1v2.8h.1v.3h.1v1.3h-.1c-.1.1.1.4 0 .5h-.1v2.8h.1v4.4h.1v1.4h.1c0 .4-.1.8 0 1.3h.1v4.4h.1v1.2h.1v.7h.1c.1.2 0 .6 0 1v.3h.1v2h.1v1.3h-.1v3.7h.1v.6c0 .9-.1 2.1 0 3.2h.1v1.6h.1v7.4h.1v5.6h-.1v.9h-.1v1.7h-.1v.8h-.1c-.1.2 0 .4 0 .5v.1h-.1v.8h-.1v.4h-.1v.9h-.1v.8h-.1c-.1.2 0 .4 0 .5v.1h-.1v.4h-.1v.5h-.1v.3h-.1v.2h-.1v.3h-.1v.2h-.1v.2h-.1v.2h-.1v.2h-.1v.2h-.1v.1h-.1v.2h-.1v.1h-.1v.2h-.1v.1h-.1v.1h-.1v.1h-.1v.2h-.1v.1h-.1v.1h-.1v.1h-.1v.1h-.1v.1h-.2v.1h-.1v.1h-.3v.1h-.4v.1h-4v-.1h-.5v-.1c-.2-.1-.4 0-.5 0h-.1v-.1h-.8v-.1h-.5v-.1h-.4v-.1h-.6v-.1h-.5v-.1h-.3v-.1h-.3v-.1h-.2v-.1h-.2v-.1c-.1-.1-.3 0-.3 0v-.1h-.2v-.1h-.2v-.1h-.2v-.1h-.2v-.1c-.1-.1-.2 0-.3 0v-.1h-.3v-.1h-.2v-.1h-.3v-.1h-.2v-.1h-.2v-.1c-.1-.1-.2 0-.3 0v-.1h-.3v-.1h-.2v-.1h-.3v-.1h-.2v-.1h-.2v-.1h-.2v-.1h-.2v-.1h-.3v-.1h-.2v-.1h-.1v-.1h-.2v-.1h-.2v-.1h-.2v-.1h-.1v-.1h-.2v-.1h-.2v-.1h-.2v-.1h-.2v-.1h-.2v-.1h-.2v-.1h-.2v-.1h-.1v-.1h-.2v-.1c-.1-.1-.2 0-.3 0v-.1h-.2v-.1h-.2v-.1h-.3v-.1h-.2v-.1h-.2v-.1h-.2v-.1h-.2v-.1h-.2v-.1h-.2v-.1h-.2v-.1h-.1v-.1h-.2v-.1h-.2v-.1h-.1v-.1h-.2v-.1h-.1v-.1h-.1v-.1h-.2v-.1h-.1v-.1h-.1v-.1h-.1v-.1h-.1v-.1h-.1v-.1h-.1v-.1h-.1v-.1h-.1v-.1h-.1v-.1h-.1v-.1h-.2v-.1h-.1v-.1h-.1v-.1h-.1v-.1h-.1v-.1h-.1v-.1h-.1v-.1h-.2v-.2h-.1v-.1h-.1v-.1h-.1v-.1h-.1v-.1h-.1v-.1h-.2v-.1h-.2v-.1h-.2v-.1h-.2v-.1h-.1v-.1h-.1v-.5h.1v-.2c.7-.7.8-.7.8-.7zm-9.1-57.9v-.1h.1v-.1h.1v-.1h.1v-.1h.1v-.1h.1v-.1h.1v-.2h.1V65h.1v-.1h.1v-.1h.1v-.2h.1v-.1h.1v-.1h.1v-.2h.1v-.1h.1v-.2h.1v-.1h.1v-.2h.1v-.2h.1v-.2h.1v-.6h-.1v-.2h-.1v-.2h-.1v-.1h-.2V62h-.5v-.1h-1.7v.1h-.6v.1h-.5v.1h-.5v.1h-.5v.1c-.1.1-.3 0-.4 0v.1h-1.2v.1h-.6v.1c-.1.1-.3 0-.3 0v.1h-.2v.1h-.2v.1h-.2v.1h-.2v.1h-.3v.1h-.4v.1h-.4v.1h-.4v.1c0 .1-.3-.1-.3 0v.1h-.3v.1h-.2v.1h-.3v.1h-.3v.1h-.6v.1c-.1.1-.3 0-.4 0h-.1v.1h-.6v.1c-.1.1-.3 0-.4 0v.1h-.5v.1h-.3v.1h-.3v.1h-.3v.1h-.2v.1h-.2v.1h-.3v.1h-.3v.1h-.2v.1h-.3v.1h-.2v.1h-.2v.1h-.1v.1h-.1v.1h-.2v.1h-.6v-.1h-.2v.1h-.1v.1h-.1v.1h-.1v.3h-.1v1.4h.1v.2h.1v.2h.1v.1h.1v.2h.3v.1h2.2v-.1h.5v-.1h.7v-.1h.7v-.1h.4v-.1h.5v-.1h.3V68h.3v-.1h.4v-.1h.4v-.1h.4v-.1h.4v-.1h.4v-.1h.4v-.1c.2-.1.5 0 .6 0v-.1h.4v-.1h.5V67h.8v-.1h.6v-.1h.9v-.1h.8v-.1c.2-.1.4.1.5 0v-.1h.4v-.1h.3v-.1c0-.1.3.1.3 0v-.1h.2v-.1h.5V66h.4v-.1h.1z"/><path class="st1" d="M453.9 114.7v-.1h-.1v-.3h-.1v-.2h-.1v-.3h-.1v-.3h-.1c-.1-.1 0-.2 0-.3h-.1c-.1-.1 0-.3 0-.3h-.1v-.3h-.1v-.3h-.1v-.2h-.1v-.2h-.1v-.2h-.1v-.2h-.1v-.2h-.1v-.3h-.1v-.5h-.1v-.7h.1c0-.1-.1-.6 0-.9h.1v-.3h.1v-.2h.1v-.2h.1v-.1h.1v-.2h.1v-.1h.1v-.1h.1v-.2h.1v-.1h.1v-.1h.1v-.1h.1v-.1h.1v-.1h.1v-.1h.1v-.1h.1v-.2h.1v-.1h.1v-.2h.1v-.2h.1v-.2h.1v-.2h.1v-.1h.1v-.2h.1v-.2h.1v-.1h.1v-.1h.1v-.2h.1v-.1h.1v-.2h.1v-.1h.1v-.2h.1v-.1h.1v-.3h.1v-.2h.1c.1-.1-.1-.3 0-.3h.1v-.4h.1v-.3h.1v-.3h.1v-.3h.1v-.2h.1v-.3h.1v-.2h.1v-.2h.1v-.2h.1v-.3h.1v-.2h.1v-.3h.1v-.2h.1v-.3h.1v-.2h.1V99h.1v-.3h.1v-.2h.1v-.3h.1V98h.1v-.3h.1v-.4h.1V97h.1v-.2h.1v-.4h.1v-.3h.1v-.2h.1s-.1-.3 0-.3h.1v-.3h.1v-.2h.1v-.4h.1v-.3h.1v-.3h.1v-.4h.1v-.4h.1V93h.1v-.6h.1v-.5h.1v-.4h.1c.1-.1-.1-.7 0-1v-.1h.1V89h-.1v-.4h-.1v-.2h-.1v-.1h-.1v-.2h-.1V88h-.1v-.1h-.1v-.1h-.1v-.1h-.3v-.1h-.7v.1h-1.3v.1h-.6v.1h-.2v.1h-.2v.1h-.2v.1h-.1v.1h-.1v.1h-.1v.2h-.1v.1h-.1v.3h-.1v.3h-.1v.1h-.1v.2h-.1v.1h-.1v.1h-.1v.1h-.1v.2h-.1v.1h-.1v.1h-.1v.2h-.1v.2h-.1v.2h-.1v.2h-.1v.3h-.1v.3h-.1v.4h-.1v.4h-.1v.4h-.1v.4h-.1v.5h-.1v.5h-.1v.5h-.1v.8h-.1v.5h-.1v.8h-.1v1.2h-.1v.6h-.1v.4h-.1v.5h-.1v.4h-.1v.4h-.1v.4h-.1v.3h-.1v.4h-.1v.4h-.1v.3h-.1v.3h-.1v.5h-.1v.5h-.1v.3h-.1v.4h-.1v.4h-.1v.4h-.1v.8h-.1v.5h-.1v.5h-.1v1.7h-.1v.5h-.1v.3h-.1v.4h-.1s.1.3 0 .3h-.1v.2h-.1v.3h-.1v.2h-.1v.2h-.1v.1h-.1v.2h-.1v.1h-.1v.2h-.1v.1h-.1v.1h-.1v.1h-.1v.2h-.1v.1h-.1v.1h-.1v.1h-.1v.1h-.2v.1h-.1v.1h-.2v.1h-.2v.1h-1.5v-.1h-.3v-.1c-.1-.1-.2 0-.3 0v-.1h-.2v-.1h-.1v-.1h-.2v-.1h-.1v-.1h-.2v-.1h-.4v-.1h-.5v.1h-.5v.1c-.4 0-.8-.1-1.1 0h-.1v.1h-.3v.1h-.3v.1h-.2v.1h-.2v.1h-.2v.1h-.3v.1h-.3v.1c0 .1-.3-.1-.3 0v.1h-.3v.1c-.1.1-.3 0-.4 0h-.1v.1h-3.8v.1H434v-.1h-2.5v.1h-.3v.1h-.3v.1h-.2v.1h-.1v.1h-.2v.1h-.1v.2h-.1v.5h-.1v.2h-.1v.1h-.1v.1h-.1v.1h-.1v.1h-.2v.1h-.2v.1h-.8v-.1h-.5v-.1h-.6v-.1h-.4v-.1h-.4v-.1h-.4v-.1h-.2v-.1h-.2v-.1c-.1-.1-.2 0-.3 0v-.1h-.1v-.1h-.1v-.1h-.1v-.1h-.1v-.1h-.1v-.1h-.1v-.1h-.1v-.1h-.1v-.2h-.1v-.1h-.1v-.2h-.1v-.2h-.1c-.1-.2 0-.5 0-.8h-.1v-1.1h.1c.1-.1 0-.3 0-.4v-.1h.1v-4.1h-.1v-.7h-.1c0-.1.1-.3 0-.4h-.1v-.3h-.1v-.4h-.1v-.3h-.1v-.4h-.1v-.5h-.1v-1.7h.1v-1.1h.1v-.5h.1v-.5h.1v-1h.1v-1.1h.1v-.8h.1V95h.1v-1.8h.1v-.3h.1v-.2h.1V92h.1v-.1h.1v-.2h.1v-.1h.1v-.2h.1v-.1h.1v-.2h.1V91h.1v-.1h.1v-.1h.2v-.1h.1v-.1h.1v-.1h.1v-.1h.1v-.1h.1v-.1h.1v-.1h.2V90h.1v-.1h.2v-.1h.1v-.1h.2v-.1h.1v-.1h.2v-.1h.2v-.1h.1v-.1c.1 0 .3.1.3 0v-.1h.1V89h.3v-.1h.2v-.1h.3v-.1h.3v-.1h.3v-.1h.2v-.1h.2v-.1h.2v-.1h.1v-.1h.2V88h.1v-.1h.1v-.1h.1v-.1h.1v-.1h.1v-.1h.1v-.1h.2v-.1h.2v-.1h.2v-.1h.2V87h.2v-.1h.2v-.1h.2v-.1h.2v-.1h.3v-.1h.3v-.1h.8v-.1h.4v-.1h.4v-.1h.3V86h.3v-.1h.2v-.1h.2v-.1h.2v-.1h.2v-.1h.1v-.1h.1v-.1h.2v-.1h.1v-.1h.1V85h.1v-.1h.2v-.1c.1 0 .3.1.3 0v-.1h.2v-.1h.1v-.1h.1v-.1h.2v-.1h.2v-.1h.2v-.1h.4V84h.4v-.1h.4v-.1h.5v-.1h.2v-.1c.2-.1.5.1.9 0h.1v-.1h.4v-.1h.2v-.1h1.3v-.1h.2v-.1h.2V83h1.7v-.1h.3v-.1h.8v-.1h1.4v-.1h.1v-.1h.1v-.1h1.3v-.1h.1v-.1h.2v-.1h4.5V82h5.8v.1h2.7v.1h2.3v.1h.5v.1h.3v.1h.3v.1h.2v.1h.2v.1h.2v.1h.1v.1h.2v.1h.1v.1h.2v.1h.1v.1h.1v.1h.1v.1h.1v.1h.1v.1h.1v.1h.1v.1h.1v.1h.1v.2h.1v.1h.1v.2h.1v.2h.1v.2h.1v.2h.1v.1h.1v.2h.1v.2h.1v.2h.1v.1h.1v.2h.1v.2h.1v.2h.1v.3h.1v.9h.1v.6h-.1v.3h.1v1h-.1v.2h-.1v.3h-.1v.3h-.1c-.1.1.1.3 0 .3h-.1v.5h-.1v.3h-.1v.4h-.1v.2h-.1v.2h-.1v.2h-.1c-.1.1.1.3 0 .3h-.1v.2h-.1v.2h-.1v.2h-.1v.2h-.1v.2h-.1v.2h-.1v.2h-.1v.2h-.1v.3h-.1v.2h-.1v.3h-.1v.3h-.1v.2h-.1v.4h-.1v.3h-.1v.3h-.1v.4h-.1v.6h-.1v.4h-.1v.4h-.1v.4h-.1v.4h-.1v.4h-.1v.3h-.1v.2h-.1v.3h-.1v.2h-.1v.2h-.1v.3h-.1c-.1 0 .1.3 0 .3h-.1v.3h-.1v.2h-.1v.2h-.1v.2h-.1v.3h-.1v.2h-.1v.1h-.1v.3h-.1v.1h-.1v.1h-.1v.2h-.1v.1h-.1v.1h-.1v.2h-.1v.1h-.1v.2h-.1v.2h-.1v.1h-.1v.1h-.1v.2h-.1v.1h-.1v.2h-.1v.1h-.1v.2h-.1v.1h-.1v.1h-.1v.2h-.1v.1h-.1v.1h-.1v.1h-.1v.2h-.1v.1h-.1v.1h-.1v.2h-.1v.1h-.1v.1h-.1v.1h-.1v.2h-.1v.1h-.1v.1h-.1v.2h-.1v.1h-.1v.1h-.1v.2h-.1v.1h-.1v.1h-.1v.2h-.1v.1h-.1v.1h-.1v.2h-.1v.2h-.1v.1h-.1v.2h-.1v.1h-.1v.1h-.1v.2h-.1v.1h-.1v.2h-.1v.1h-.1v.1h-.1v.1h-.1v.1h-.1v.1h-.1v.1h-.1v.2h-.1v.1h-.1v.2h-.1v.2h-.1v.2h-.1v.1h-.1v.2h-.1v.1h-.1v.1h-.1v.1h-.1v.1h-.1v.1h-.1v.1h-.1v.2h.1v.1h.2v.1h.3v.1h.1v.1h.2v.1h.2v.1h.1v.1h.1v.1h.2v.1h.1v.1h.1v.1h.2v.1h.1v.1h.1v.1h.2v.1h.1v.1h.1v.1h.2v.1h.1v.1h.1v.1h.2v.1h.1v.1h.2v.1h.1v.1h.1v.1h.1v.1h.1v.1h.2v.1h.1v.1h.2v.1h.2v.1h.1v.1h.2v.1h.1v.1h.2v.1h.1v.1h.1v.1h.1v.1h.1v.2h.1v.1h.1v.5h.1v.6h-.1v.5h-.1v.1h-.1v.1h-.1v.1h-.2v.1h-.2v-.1h-1.3v-.1h-1.3v-.1h-.5v-.1h-.7v-.1h-.7v-.1h-.5v-.1h-.1c-.1 0-.5.1-.7 0v-.1h-2.7v.1h-1v.1h-.1c-.1 0-.3-.1-.4 0v.1h-.4v.1h-.4v.1h-.4v.1h-.3v.1h-.1c-.1 0-.3-.1-.4 0v.1h-.5v.1h-.5v.1h-.6v.1h-.5v.1h-.4v.1h-.4v.1h-.3v.1h-.2v.1h-.3v.1h-.3v.1h-.4v.1h-.7v.1h-.4v.1h-.4v.1h-.5v.1h-.3v.1h-.3v.1h-.3v.1h-.4v.1h-.2v.1h-.3v.1h-.3v.1h-.3v.1h-.3v.1h-.5v.1h-.4v.1c-.1 0-.4-.1-.6 0v.1h-.1c-.2 0-.4-.1-.5 0h-.1v.1h-.4v.1h-.6v.1h-.6v.1c-.1.1-.3-.1-.4 0v.1h-.4v.1h-.5v.1h-.3v.1h-.2v.1c-.1 0-.3-.1-.4 0v.1h-.3v.1h-.2v.1h-.2v.1h-.3v.1h-.4v.1c-.1.1-.3-.1-.4 0v.1h-.6v.1h-.6v.1h-.6v.1h-.9v.1h-.8v.1h-.5v.1h-.5v.1h-.7v.1h-.5v.1h-.6v.1h-.5v.1c-.1.1-.2 0-.3 0h-.1v.1h-.3v.1c-.1.1-.4-.1-.6 0h-.3v.1h-.5v.1h-.3v.1h-.4v.1h-.3v.1h-.2v.1h-.2v.1h-.2v.1h-.3v.1h-.2v.1h-.2v.1h-.3v.1h-.2v.1h-.3v.1h-.2v.1h-.6v.1H420v-.1h-1v-.1h-.3v-.1h-.2v-.1h-.2v-.1h-.1v-.1h-.2v-.1h-.1v-.1h-.2v-.1h-.1v-.1h-.1v-.1h-.1v-.1h-.2v-.1h-.1v-.1h-.2v-.1h-.2v-.1h-.1v-.1h-.1v-.1h-.2v-.1h-.1v-.1h-.1v-.1h-.2v-.1h-.1v-.1h-.1v-.1h-.1v-.1h-.1v-.1h-.1v-.1h-.1v-.1h-.1v-.1h-.1v-.1h-.1v-.1h-.1v-.1h-.1v-.1h-.1v-.2h-.1v-.1h-.1v-.1h-.1v-.1h-.1v-.1h-.1v-.1h-.1v-.1h-.1v-.1h-.2v-.2h-.1v-.1h-.2v-.1h-.1v-.1h-.1v-.1h-.1v-.1h-.1v-.1h-.1v-.1h-.2v-.1h-.1v-.1h-.1v-.1h-.1v-.1h-.1v-.1h-.1v-.1h-.1v-.1h-.2v-.1h-.1v-.1h-.1v-.1h-.1v-.2h-.2v-.2h-.1v-.1h-.1v-.1h-.1v-.2h-.1v-.2h-.1v-.1h-.1v-.2h-.1v-.2h-.1v-.2h-.1v-.2h-.1v-.2h-.1v-.2h-.1v-.2h-.1v-.3h-.1v-.2h-.1v-.2h-.1v-.3h-.1v-.3h-.1v-.3h-.1v-.3h-.1v-.2h-.1v-.2h-.1v-.3h-.1v-.3h-.1v-.4h-.1v-.4h-.1v-.3h-.1v-.4h-.1v-.4h-.1v-.5h-.1v-.5h-.1v-.5h-.1v-.4h-.1v-.6h-.1v-.6h-.1v-.4h-.1v-.5h-.1v-.6h-.1v-.3h-.1c-.1-.1 0-.6 0-.8h-.1v-.7h-.1v-.4h-.1v-1.8h-.1v-.1c0-.2.1-.4 0-.6v-.1h-.1v-.4h-.1v-.6h-.1v-.6h-.1v-1h.1v-.4h.1v-.2h.1v-.2h.1v-.2h.1v-.2h.1v-.2h.1v-.3h.1v-.2h.1v-.2h.1v-.2h.1v-.2h.1v-.2h.1v-.3h.1v-.2h.1v-.1h.1v-.2h.1v-.2h.1v-.2h.1v-.2h.1v-.3h.1v-.2h.1V96h.1v-.3h.1v-.2h.1v-.2h.1V95h.1v-.2h.1v-.2h.1v-.2h.1v-.2h.1v-.4h.1v-.3h.1v-.2h.1V93h.1v-.4h.1v-.4h.1v-.3h.1v-.3h.1v-.4h.1v-.3h.1v-.5h.1v-.6h.1v-.3h.1v-.4h.1c.1-.2-.1-.4 0-.6v-.1h.1v-.8h.1v-1.1h-.1v-.2c-.1-.7.1-1.4 0-2.2v-.4h-.1v-1h.1v-1.8h.1v-1.8h.1c.1-.2 0-.4 0-.5h.1v-.8h.1v-.1c0-.2-.1-.5 0-.9v-.3h.1V76h.1v-.4h.1v-.3h.1V75h.1v-.2h.1v-.1h.1v-.2h.1v-.1h.1v-.2h.1v-.1h.1V74h.1v-.1h.2v-.1h.1v-.1h.6v.1h.2v.1h.1v.1h.1v.1h.1v.2h.1v.3h.1c.1.1 0 .5 0 .9v2h.1v.9h.1v.5h.1c.1.1 0 .2 0 .3v.1h.1v.3h.1v.4h.1v.4h.1v.5h.1v1.2h.1v.6h.1v.8h.1v.5h.1v.3h.1v.5h.1v.6h.1v.5h.1v.5h.1v.8h.1c.1.1 0 .4 0 .6h.1v.4h.1c.1.1 0 .3 0 .4v.1h.1v.5h.1v.4h.1v.6h.1v.5h.1v.4h.1v.9h.1v.6h.1v.5h.1v.9h.1v.4h.1c.1.1 0 .3 0 .4v.1h.1v.5h.1v.9h.1v.5h.1V98h.1v.6h.1c.1.1-.1.3 0 .4h.1c.1.1 0 .6 0 .8v.1h.1c0 .1-.1.4 0 .6h.1v.4h.1v.9h.1v.5h.1v.8h-.1v.7h.1v.9h.1v.7h.1v.7h.1v.4h.1v.5h.1v.5h.1c.1.2-.1.4 0 .5h.1v.4h.1v.5h.1v.4h.1v.3h.1v.4h.1c.1.1 0 .2 0 .3v.1h.1c.1.1 0 .2 0 .3v.1h.1v.6h.1v.6h.1v.4h.1v.5h.1v.5h.1v.4h.1v.5h.1v.3h.1c.1.1 0 .3 0 .3h.1v.3h.1v.3h.1v.2h.1v.2h.1v.2h.1v.1h.1v.2h.1v.2h.1v.1h.1v.1h.1v.1h.1v.2h.1v.1h.1v.1h.1v.1h.1v.1h.1v.1h.1v.1h.2v.1h.1v.1h.2v.1h.3v.1h.2v.1h.2v.1h.3v.1h.3v.1s.3-.1.3 0v.1h.4v.1h1.1v-.1h.4v-.1h.3v-.1h.3v-.1h.2v-.1h.2v-.1h.2v-.1h.2v-.1h.2v-.1h.2v-.1h.2v-.1h.2v-.1h.3v-.1h.3v-.1h.4v-.1h.7v-.1h.4v-.1h.7v-.1h.6v-.1c.2-.1.4.1.5 0v-.1h.6v-.1c.1-.1.3 0 .4 0h.1v-.1h.5v-.1h.4v-.1c.1-.1.3.1.4 0v-.1h.5v-.1h.5v-.1h.5v-.1h.4v-.1h.4v-.1h.4v-.1h.3v-.1h.2v-.1h.4v-.1h.5v-.1c.1-.1.5 0 .7 0v-.1h.5v-.1h.1c.3-.1.9 0 1.4 0h.1v-.1h2.3v-.1h1.2v-.1c.1 0 .3.1.4 0v-.1h.8v-.1h.8v-.1h1.1v-.1h.7c1.2 0 2.4.1 3.6 0h.4v-.1c.3-.1.8 0 1.3 0v-.1c-1.1.5-1 .6-1 .6zm-6.1-28.3h-.1v-.1h-.1v-.1h-.1v-.1h-.1V86h-.2v-.1h-2.7v.1c-.1.1-.3 0-.4 0v.1c-.1.1-.3-.1-.3 0v.1h-.3v.1h-.3v.1h-.5v.1h-.4v.1h-.3v.1c-.1 0-.2-.1-.3 0v.1h-.3v.1h-.4v.1c-.1.1-.4-.1-.5 0v.1h-.2c-.1 0-.3-.1-.3 0v.1h-.3v.1h-.4v.1h-.3v.1h-.2v.1h-.3v.1h-.2v.1h-.2v.1h-.1v.1h-.2v.1h-.2v.1h-.2v.1h-.2v.1h-.1v.2c0 .1-.1.3 0 .3h.1v.3h.1v.2h.1v.2h.1v.3h.1v.3h.1v.4h.1v.2h.1v.2h.1v.1h.1v.1h.5v-.1h.2V91h.2v-.1h.1v-.1h.2v-.1h.2v-.1h.1v-.1h.3v-.1h.1v-.1h.2v-.1h.2v-.1h.2V90h.3v-.1h.7v-.1h.5v-.1h2.1v-.1h1.7c.3 0 .8.1 1 0v-.1h.3v-.1h.1v-.1h.1v-.1h.1v-.1h.1V89h.1v-.2h.1v-.1c0-.1-.1-.3 0-.3h.1v-.6h.1v-1.2h-.1c-.2 0-.1-.1-.1-.2zm-16 4.3h-.2v-.1h-.1v-.1h-.3v-.1h-.8v.1h-.3v.1h-.2v.1h-.1v.1h-.3v.1h-.1v.1h-.2v.1h-.2v.1h-.1v.1h-.1v.1h-.2v.1h-.1v.1h-.2v.1h-.1v.1h-.1v.1h-.1v.1h-.1v.1h-.2v.2h-.2v.1h-.1v.2h-.2v.2h-.1v.1h-.1v.1h-.1v.1h-.1v.1h-.1v.2h-.1v.1h-.1v.1h-.1v.5h-.1v.3h.1v.6h.1v.3h.1v.3h.1v.3h.1v.3h.1v.4h.1v.3h.1v.2h.1v.3h.1v.2h.1v.2h.1v.3h.1v.2h.1v.3h.1v.3h.1v.4h.1v.3h.1v.5h.1v.6h.1v.6h.1v.6h.1v.7h.1v.5h.1v.6h.1v.8h.1v.5h.1c.1.3-.1.7 0 .9h.1v.8h.1v.5h.1v.5h.1v.4h.1v.3h.1v.4h.1v.2h.2v.1h.1v-.1h.4v-.1h.3v-.1h.4v-.1c0-.1.3.1.3 0v-.1h.3v-.1h.2v-.1h.2v-.1h.2v-.1h.2v-.1h.1v-.1h.1v-.1h.1v-.1h.1v-.1h.1v-.1h.1v-.1h.1v-.1h.1v-.2h.1v-.3h.1v-.2h.1v-.3h.1v-.2h.1v-.6h.1v-1.3h.1v-2h-.1v-.3h.1v-.4h-.1v-1h-.1v-.6h-.1v-.6h-.1v-.6h-.1v-.4h-.1v-.5h-.1v-.3h-.1v-.4h-.1v-.4h-.1v-.7h-.1v-.5h-.1v-.5h-.1v-.7h-.1v-.7h-.1v-.6h-.1v-.6h-.1v-.8h-.1v-.4h-.1v-.2h-.1v-.2h-.1v-.2h-.1s.1 0 0 0zm14.7 4.5v-.1h-.1V95h-.1v-.1h-.4v-.1h-3.1v.1h-.6v.1h-.6v.1h-.6v.1h-.5v.1h-.2c-.3 0-.6-.1-.8 0v.1h-.4v.1h-.3v.1h-.3v.1h-.2v.1h-.2v.1h-.1v.5h.1c.1.1 0 .3 0 .4h.1v.5h.1v.5h.1c.1.1 0 .3 0 .4v.1h.1v.4h.1v.2h.2v.1h.9v-.1h.8v-.1h.6v-.1h.3v-.1h.2v-.1h.3v-.1h.3v-.1h.3v-.1h.3v-.1h.7V98h.6v-.1h.2v-.1h.2v-.1h.1v-.1h.1v-.1h.1v-.1h.1v-.1h.1v-.2h.1V97h.1v-.1h.1v-.1h.1v-.1h.1v-.1h.1v-.1h.1v-.1h.1v-.1h.1v-.1h.1v-.1h.1v-.2h.1v-.1h.1v-.2h.1v-.1h.1v-.3zm-.9 6.7v-.1h-.9v.1h-.3v.1h-.3v.1h-.3v.1h-.3v.1h-.3v.1h-.3v.1h-.3v.1c0 .1-.3-.1-.3 0v.1h-.3v.1h-.3v.1h-.4v.1h-.4v.1h-.3v.1h-.3v.1h-.3v.1h-.2v.1h-.2v.1h-.1v.1h-.2v.1h-.3v.1c-.1 0-.3-.1-.3 0v.1h-.1v.9h.1v.3h.1v.3h.1v.3h.1v.3h.1v.3h.1v.1h.1v.1h.1v.1h2.7v-.1h.5v-.1h.3v-.1h.1v-.1h.2v-.1h.1v-.1h.2v-.1h.1v-.1h.1v-.1h.1v-.2h.1v-.1h.1v-.2h.1v-.2h.1v-.2h.1v-.2h.1v-.2h.1v-.2h.1v-.1h.1v-.1h.1v-.2h.1v-.1h.1v-.1h.1v-.2h.1v-.1h.1v-.2h.1v-.2h.1v-.2h.1v-.2h.1v-.3h.1v-.1c0-.1-.1-.2-.2-.3.1 0 .1 0 0 0zM248.7 38.4l.2.1v.1l1.7.1v.3l.1.2v.2c.1.1.1.2.1.3.1.1.1.2.1.3v.1s0 .1.1.1l.1.1c.1.1.1.2.1.3l.1.1v.1l.1.2v.2c.1.1.1.2.1.3l.2.2.1.1.1.1s0 .1.1.1l.1.1.1.1h.1c.1.1.1.2.1.3l.1.1c.1 0 .2 0 .2.1l.2.1.1.1.1.1h.1l.2.2.1.1v.1l.1.1v.1l.2.1v.1h.3l.2.1v.1h.1l.1.1v.1h.3l.2.1h.2v.1h.6l.2.1v.1h.1c.1 0 .2 0 .2.1l.2.1h.1l.2.1h.4l.1.1.1.1h.5l.1.1h1.6l.1-.1h.5l.1-.1h.2s.1-.1.3-.1c.1-.1.2-.1.2-.1l.2-.2s.1 0 .1-.1v-.1s.1 0 .1-.1.1-.1.1-.1l.1-.1c0-.1 0-.1.1-.2l.2-.2h.1v-.1l.1-.1c0-.1.1-.1.1-.1l.1-.1c0-.1 0-.1.1-.2l.2-.2.1-.1v-.1l.1-.1v-.1c0-.1 0-.2.1-.3l.1-.1.1-.1v-.2l.1-.1v-1.5l.2-.2v-.1c.1-.1.1-.1.2-.1v-.3l.1-.2h.1l1.2-.3c0-.1 0-.1.1-.2l.1-.1V38l-.1-.1v-.1l-.1-.2v-.1l-.1-.1v-.2l-.1-.1-.1-.1s0-.1-.1-.1l-.1-.1v-.2l-.1-.1-.1-.1-.1-.1s0-.1-.1-.1l-.1-.1-.2-.1v-.2l-.1-.1-.1-.1-.1-.1c-.1 0-.1-.1-.1-.1l-.1-.1s0-.1-.1-.1l-.1-.1s0-.1-.1-.1l-.1-.1-.1-.1-.1-.1-.1-.1-.1-.1-.1-.1-.1-.1s0-.1-.1-.1l-.1-.1-.1-.1-.1-.1s0-.1-.1-.1l-.1-.1-.1-.1-.1-.1-.1-.1-.1-.1-.1-.1v-.1l-.1-.1v-.1l-.1-.1s0-.1-.1-.1l-.1-.1-.1-.1s0-.1-.1-.1l-.1-.1s0-.1-.1-.1l-.1-.1-.1-.1s0-.1-.1-.1l-.1-.1s0-.1-.1-.1l-.1-.1h.2l-.1-.1v-.1l-.1-.1v-.1h-.1l-.2-.1V31h-.2l-.1-.2-.1-.1v-.1h-.1l-.1-.1-.1-.1h-.3l-.1-.2-1.5-.1h-.7l-.1.1h-.5c-.1.1-.2.1-.2.1h-.4l-.1.1-.1.1h-.3l-.1.1h-.2c-.1.1-.1.1-.2.1l-.1.1h-.2c-.1 0-.1.1-.2.1 0 .1-.1.1-.1.1h-.2c-.1.1-.2.1-.2.1v.1l-.1.1v.1s-.1 0-.1.1-.1.1-.1.1l-.1.1h-.2v.1l-.2.1c-.1.1-.1.1-.2.1l-.2.2-.1.1v.1l-.1.1v.1l-.1.1-.1.1h-.2v.1l-.2.1c-.1.1-.1.1-.2.1l-.2.2h-.1v.1l-.1.1v.1l-.1.1v.1h-.1v.2l-.1.2h-.1l-.1.1c0 .1 0 .2-.1.3l-.2.1h-.1c0 .1 0 .2-.1.3l-.1.1v.2l-.2.1v.1s-.1 0-.1.1-.1.1-.1.1v.1h-.1v.3l-.1.1v.8l.1.1v.2l.2.2h.1c.1 0 .1.1.2.2l.2.1h.1-.9zm-4.8 19.9h-.8l-.1.1-.1.1h-.2c0 .1-.1.1-.1.1h-.5c-.1.1-.1.1-.2.1h-.4c-.1.1-.1.1-.3.1h-.3v.1l-.1.1h-.4c0 .1-.1.1-.1.1h-.3v.1l-.1.1h-.3l-.2.1h-.4l-.1.1h-.2l-.2.2h-.3c0 .1-.1.1-.2.1h-.1c-.1.1-.1.1-.2.1h-.3l-.1.1h-.3l-.1.1-.1.1s-.1.1-.2.1h-.2l-.2.2-.2-.1c-.1 0-.2 0-.2-.1l-.1-.1-.1.1h-.2l-.1.1h-.2c0 .1-.1.1-.3.1l-.1.1h-.3c0 .1-.1.1-.2.1h-.2l-.1.1h-.1l-.1.1h-.2v.1l-.1.1h-.3l-.1.1h-.1l-.2.1h-.3v.1l-.2.2h-.4v.1s-.1.1-.2.1h-.3l-.1.1h-.5c-.1.1-.1.1-.2.1h-.5v.1s-.1.1-.3.1h-.3l-.1.1h-.8l-.1.1h-.4v.1c-.1.1-.1.1-.2.1v.1l-.1.1h-.3l-.1.1h-.2l-.1.1h-.5c0 .1-.1.1-.1.1h-.5l-.2.1h-.3l-.1.1h-1.2l-.1.1h-.4l-.2.1h-.7v.1h-.3l-.1.1h-.1l-.1.1h-.5s0 .1-.1.1l-.1.1h-.3l-.1.1h-.2l-.1.1-.1.1h-.1l-.1.1h-.2v.1c-.1.1-.1.1-.2.1l-.1.1h-.2c-.1.1-.2.1-.4.1v.1l-.1.1h-.4c0 .1-.1.1-.2.1h-.5c0 .1-.1.1-.2.1h-.3v.1l-.1.1h-.4s-.1.1-.2.1h-.2c-.1.1-.1.1-.2.1h-.2l-.3.4h-1.2c-.5 0-1 0-1.5-.1-.4 0-.7 0-1.1-.1h-.1l-.2-.1-.1-.1h-1.2l-.1.1h-.1v.2l-.1.2h-.1v.9l.2.2v.1h.1l.1.1.1.1c.1 0 .1.1.1.1h.3c.1 0 .1.1.1.1h.2l.1.1v.1h.1l.1.1v.1h.2l.3.1v.1h.1l.1.1v.1h.2l.1.2.1.1s0 .1.1.1.1.1.1.1l.1.1h.1l.3.3s0 .1.1.1l.1.1.1.1v.1l.1.1s0 .1.1.1l.1.1.1.1h.1l.1.1s0 .1.1.1l.1.1.1.1.1.1.1.1s0 .1.1.1l.1.1v.1l.1.1v.1l.1.1v.1l.1.1s0 .1.1.1l.1.1h.1l.1.1v.1l.1.1.2.1.1.1.1.1v.1l.1.1.1.1.1.1s0 .1.1.1l.3.2.1.1h.1l.1.1s0 .1.1.1.1.1.1.1l.1.1s0 .1.1.1l.1.1s0 .1.1.1l.1.1.1.1s0 .1.1.1l.1.1s0 .1.1.1l.5.4.1.1.1.1h.2l.1.1.1.1v.1h.1c.1 0 .1.1.2.2l.1.1h.6v.1h.1l1.7.1v-.1l.1-.1h.6l.1-.1.1-.1h.8l.1-.1h.6l.1-.1.1-.1h.6l.1-.1.1-.1h.4l.1-.1h.3l.1-.1h.2c.1-.1.1-.1.2-.1l.2-.2s.1 0 .1-.1v-.1s.1 0 .1-.1V74l.1-.1c0-.1.1-.1.2-.1v-.1l.1-.1.1-.1s.1 0 .1-.1v-.1l.1-.1v-.1l.1-.1c0-.1.1-.1.1-.1l.1-.1h.1c0-.1 0-.1.1-.2l.1-.1h.1l.1-.1h.1v-.1l.1-.1.1-.1.8-.1h.2l.1-.1h.1v-.1c.1-.1.2-.1.3-.1l.1-.1.2-.2h.3c0-.1.1-.1.2-.1h.2c.1-.1.1-.1.2-.1 0-.1.1-.1.2-.1h.2V71l.2-.2h.3v-.1l.1-.1.1-.1.1-.1h.3l.1-.1h.1l.1-.1h.2l.1-.1h.3l.2-.1h.3l.1-.1.2-.1.2-.2c0-.1.1-.1.2-.1l.1-.1h.7l.1-.1h.2c0-.1.1-.1.2-.1h.2c.1-.1.1-.1.3-.1h.2l.1-.1h.3l.1-.1h.2l.1-.1h.2l.1-.1h.2l.1-.1h.5v-.1l.1-.1h.6l.1-.1h.3c0-.1.1-.1.2-.1h.1l.1-.1h.4l.1-.1h.5v-.1s.1-.1.2-.1h.2l.1-.1h.1l.2-.1h.3l.1-.1h.3l.1-.1h.4c.1-.1.2-.1.4-.1l.1-.1h.5l.1-.1h.3V67l.1-.1h.7l.1-.1h.3c.1-.1.1-.1.2-.1h.2l.1-.1h.7s0-.1.1-.1l.1-.1h.4l.1-.1h.2l.1-.1h.4c0-.1.1-.1.3-.1 0 0 .1-.1.2-.1h.2l.1-.1h.2v.1c0-.1 0-.1.1-.2l.1-.1h.1l.1-.1h.2l.1-.1h.3V65s0-.1.1-.1l.1-.1h.2l.1-.1h.2l.1-.1h.1l.1-.1h.2l.1-.1h.3l.1-.1.1-.1h.1v-.1c.1-.1.1-.1.2-.1v-.1l.1-.1h.2v-.1c.1-.1.1-.1.2-.1v-.1l.1-.1h.3l.1-.1h.2l.1-.1h.2l.1-.1h.2l.1-.1h.4l.1-.1h.2s.1-.1.3-.1c.1-.1.2-.2.4-.1v-.1l.1-.1h.2l.1-.1h.5l.1-.1h.5l.2-.1h.4l.1-.1h.3c0-.1.1-.1.2-.1h1.7c.1 0 .2 0 .2.1l.2.1v.1l.1.1v.2l.1.2-.2.1c0 .1 0 .2-.1.2l-.1.1h-.1c0 .1 0 .1-.1.2l-.2.1-.1.1v.1c-.1.1-.2.1-.2.1l-.2.2-.1.1c0 .1-.1.1-.2.1v.1s-.1 0-.1.1v.1s-.1 0-.1.1v.1c-.1.1-.1.1-.2.1l-.1.1c0 .1 0 .1-.1.2l-.1.1-.2.1-.2.2c0 .1-.1.1-.2.1l-.1.1c0 .1 0 .2-.1.3l-.1.1h-.1c0 .1 0 .1-.1.2l-.1.1c0 .1-.1.1-.2.1v.1l-.1.1v.1l-.1.1c0 .1-.1.1-.2.1v.1l-.1.1v.1l-.1.1-.1.1c0 .1 0 .1-.1.2l-.2.2s-.1 0-.1.1v.1l-.1.1v.1s-.1 0-.1.1l-.1.1c0 .1 0 .2-.1.3l-.2.1h-.1v.2l-.2.2-.1.1v.1l-.1.1v.1l-.1.1-.1.1c0 .1 0 .1-.1.2l-.1.1h-.1v.1l-.1.1-.1.1v.4l-.2.1v.1l-.1.1c0 .1-.1.1-.1.1l-.1.1v.2l-.1.2c0 .1 0 .1-.1.2l-.1.1h-.1c0 .1 0 .1-.1.2v.3l-.2.1v.1l-.1.1v.1h-.1c0 .1 0 .2-.1.2l-.1.1h-.3v.1h-.1v.2l-.1.2h-.1l-.1.1v.2l-.1.2c0 .1 0 .1-.1.2l-.2.2h-.1c0 .1 0 .1-.1.2l-.2.2-.1.1v.1l-.1.1c0 .1 0 .1-.1.2l-.1.1h-.1l-.1.1c0 .1 0 .2-.1.3l-.2.1h-.1c0 .1 0 .2-.1.3l-.1.1v.1l-.1.2h-.1l-.1.1c0 .1 0 .1-.1.2l-.1.1c0 .1 0 .1-.1.2l-.2.1v.1l-.1.2h.3c0 .1 0 .1-.1.2l-.2.2-.1.1c0 .1-.1.1-.1.1l-.1.1c0 .1 0 .1-.1.2l-.1.1h-.1v.1l-.1.1-.1.1c0 .1 0 .1-.1.2l-.1.1h-.1v.1s-.1 0-.1.1l-.1.1c0 .1 0 .2-.1.3l-.1.1h-.1v.2l-.2.1v.1l-.1.1-.1.1c0 .1 0 .1-.1.2l-.1.1h-.1v.1c0 .1 0 .2-.1.3l-.2.1v.1l-.1.2h-.1c0 .1 0 .1-.1.2l-.1.1v.1c0 .1 0 .2-.1.3l-.1.1c0 .1 0 .3-.1.4v.1c0 .1 0 .2-.1.2l-.1.1c0 .1 0 .2-.1.3 0 .1 0 .2-.1.3l-.1.1c0 .1 0 .2-.1.3l-.1.1c0 .1 0 .1-.1.2l-.1.1v.1l-.1.2c0 .1 0 .1-.1.2l-.1.1h-.2v.1h-.1c0 .1 0 .2-.1.3 0 .1 0 .2-.1.2l-.1.1c0 .1 0 .2-.1.2l-.1.1c0 .1 0 .2-.1.3v.2l-.1.2h-.1L244 86v.1c0 .1 0 .2-.1.3v.2l-.1.1s0 .1-.1.1h-.1c0 .1 0 .2-.1.2l-.1.1v.2l-.1.1v.3l-.1.2c0 .1 0 .1-.1.2v.2l-.1.2c0 .1 0 .1-.1.2l-.1.1v.2l-.1.2c0 .1 0 .1-.1.2v.1l-.1.2c0 .1 0 .1-.1.2l-.1.1v.1l-.1.2v.3l-.1.1c0 .1 0 .1-.1.2l-.1.1c0 .1 0 .1-.1.2l-.1.1c0 .1 0 .2-.1.2v.3l-.6.2h-.1v.3l-.1.1v.4l-.1.1v.2l-.1.2c0 .1 0 .1-.1.2l-.1.1v.3s0 .2-.1.3l-.1.1v.5l-.1.2h-.1v.5l-.1.2h-.1v.2c0 .1 0 .2-.1.3l-.1.1v.4s0 .2-.1.3l-.1.1v.5c0 .1 0 .2-.1.3l-.1.1v.9h-.2v.5s0 .2-.1.3l-.1.1v.2s0 .2-.1.3h-.1v.4l-.1.2h-.1v.6l-.1.2h-.1v1.9l-.2.1c0 .1 0 .3-.1.4v.5l-.1.2h-.1v.5c0 .1 0 .2-.1.4l-.1.1v.5l-.3 7.9v.3h.1l.1.3v1l.1.1c.1.1.1.3.1.3v.1c.1.1.1.3.1.4v.3c.1.1.1.3.1.4v.1c.1.1.1.3.1.4v.2l.1.1v.2h.1s0 .1.1.1l.1.1c.1.1.1.1.1.2l.1.2v.2l.2.3v.2l.1.1.1.1.1.1.1.1.1.1.1.1v.1h.1l.3.3s0 .1.1.1l.1.1v.1h.2l.1.1h1l.1-.1h.2c0-.1.1-.1.1-.1h.2c0-.1.1-.1.1-.1h.3v-.1l.2-.1c.1 0 .1-.1.2-.1v-.1l.2-.1c.1-.1.1-.1.2-.1l.1-.1h.1v-.1s.1 0 .1-.1l.1-.1c0-.1.1-.1.2-.1v-.1h.1v-.1l.1-.1.1-.1.1-.1h.2v-.1l.2-.1c.1-.1.1-.1.2-.1l.2-.2s.1 0 .1-.1v-.1c.1-.1.1-.1.2-.1l.1-.1c0-.1.1-.1.2-.1l.1-.1h.2c.1-.1.1-.1.3-.1l.1-.1v-.1s.1-.1.3-.1l.1-.1s.2-.1.3-.1l.1-.1c0-.1.1-.1.1-.1l.1-.1h.2l.2-.1c.1-.1.1-.1.2-.1l.2-.2s.1 0 .1-.1v-.1s.1 0 .1-.1.1-.1.2-.1v-.1l.1-.1v-.1h.1v-.2l.2-.1s0-.1.1-.1l.1-.1.1-.1v-.1h.1c0-.1 0-.1.1-.2l.1-.1c0-.1 0-.1.1-.2l.1-.1c0-.1 0-.1.1-.2l.1-.1v-.1l.1-.2h.1v-.5l.1-.2h.1v-.4l.1-.2h.1v-1l.1-.2h.1v-.3s0-.2.1-.3l.1-.1v-.3s0-.1.1-.3l.1-.1v-.4l.1-.2h.1c0-.1 0-.2.1-.3l.1-.1c0-.1 0-.1.1-.2l.1-.1v-.3l.1-.2h.1c0-.1 0-.2.1-.3l.1-.1v-.2s0-.2.1-.3l.1-.1c0-.1 0-.1.1-.2l.1-.1v-.4l.1-.2h.1c0-.1 0-.2.1-.3l.1-.1v-.3l.1-.2h.1v-.2c0-.1 0-.2.1-.4l.1-.1v-.6l.1-.2h.1v-.3c-.1-.1-.1-.3-.1-.4v-2s0-.2.1-.3l.1-.1v-.8c0-.1 0-.3.1-.4l.1-.1v-.5l.1-.3h.1v-.4l.1-.1c0-.1 0-.1.1-.2l.1-.2c0-.1 0-.1.1-.2l.1-.1c0-.1 0-.2.1-.3l.1-.1v-.6l.2-.2.1-.1v-.3l.1-.2h.1v-.1l.1-.2c0-.1 0-.1.1-.2l.1-.1c0-.1 0-.1.1-.2l.1-.1v-.3l.3-.2h.1c0-.1 0-.2.1-.3h.1v-.2l.1-.1v-.1c0-.1 0-.2.1-.3l.1-.1c0-.1 0-.2.1-.2V93l.2-.2h.1c0-.1 0-.1.1-.2l.1-.1v-.3l.1-.2h.1v-.1l.1-.1c0-.1 0-.1.1-.2l.2-.2.1-.1v-.1c.1-.1.2-.1.2-.1V91l.2-.2h.4l.1-.1h.4c.1-.1.3-.1.5-.1h.4l.1-.1h.4v-.1s.1-.1.2-.1l.1-.1h.4l.1-.1h.2l.1-.1h1.2v.3l-.1 1.4v1.1l.1.1c.1.1.1.3.1.3v2.9l.1.1c.1.1.1.3.1.3v2.3-.8.3h.1c.1.1.1.3.1.4v.9h.1c.1.1.1.5 0 .6l-.1.1h-.1v1.2c0 .4 0 .8-.1 1.3v1.6s0 .2-.1.3v1.5s0 .2-.1.3l-.1.1v3.8s0 .2-.1.3l-.1.1v.7s0 .2-.1.3l-.1.1v2.3l-.1.3.1.1v.7l-.1.3h-.1v1.8h-.1v.9c0 .1 0 .2-.1.3l-.1.1v2c0 .1 0 .2-.1.3l-.1.1v1.7l-.2 5.8v1.7s0 .2-.1.3l-.1.1v.9c0 .1 0 .3-.1.4h-.1v1.5l-.1.2h-.9v1.4l-.1.2h-.1v.9c0 .1 0 .2-.1.3v.9l-.1.1v.3l-.1.2h-.1v.4l-.1.1v2.4c0 .1 0 .2-.1.3l-.1.1v.5l-.1.2h-.1v.4l-.1.2h-.1c0 .1 0 .3-.1.4v.3l-.2.1v.8l-.1.1v.1c0 .1 0 .2-.1.3l-.1.1v.2l-.1.1v.6l-.1.2v.3c0 .1 0 .2-.1.3l-.1.1v.2h.1v.1h1.3l.1-.1h.5l.1-.1h.2l.1-.1h.2c0-.1.1-.1.1-.1h.2l.1-.1h.1v-.1l.1-.1c0-.1.1-.1.2-.1v-.1l.1-.1v-.1l.1-.1v-.1h.1v-.2l.2-.2.1-.1v-.1l.1-.1v-.1c0-.1 0-.1.1-.2l.2-.2.1-.1v-.1s.1 0 .1-.1.1-.1.2-.1v-.1l.1-.1v-.1s.1 0 .1-.1.1-.1.2-.1v-.1l.1-.1v-.1l.1-.1c0-.1.1-.1.1-.1l.1-.1c0-.1 0-.1.1-.2v-.1h.1v-.1s.1 0 .1-.1v-.1l.1-.1c0-.1 0-.1.1-.2l.1-.2v-.1l.1-.2v-.1l.1-.2c0-.1 0-.1.1-.2l.2-.2s.1 0 .1-.1l.1-.1c0-.1 0-.1.1-.2l.1-.1h.1v-.1h.1v-.1l.1-.1.3-.1.1-.1h.1l.1-.1h.1l.1-.1.1-.1v-.1l.1-.1v-.1l.1-.1.1-.1h.1v-.1s.1 0 .1-.1l.1-.1s.1-.1.2-.1c0-.1 0-.1.1-.2l.1-.1h.2l.1-.1c0-.1 0-.1.1-.2l.1-.1h.1v-.1l.1-.1.1-.1v-.1l.1-.2h.1v-.1l.1-.2c0-.1 0-.2.1-.3l.1-.1v-.1l.1-.2h.1c0-.1 0-.2.1-.3v-.2c0-.1 0-.2.1-.3l.1-.1v-.3s0-.2.1-.3v-.3s0-.2.1-.3l.1-.1v-.3s0-.2.1-.3l.1-.1v-.6l.1-.2h.1c0-.1 0-.2.1-.3l.1-.1v-.3l.1-.2h.1s0-.1.1-.1l.1-.1v-.3l.1-.2h.1v-.1h.1v-.1s0-.2.1-.3l.1-.1c0-.1 0-.1.1-.2l.1-.1.1-.1v-.2l.1-.2h.1v-.1l.1-.2h.1c0-.1 0-.3.1-.4h.1v-.5c0-.1 0-.2.1-.3l.1-.1v-.5s0-.1.1-.3l.1-.1v-1.9l.1-.2h.1v-2c-.1-.1-.1-.3-.1-.5v-.3l-.1-.1.4-9.8v-.5l-.2-.1v-1.1l.4.3h.1l.1.1s0 .1.1.1.1.1.1.1h.1s0 .1.1.1.2 0 .2.1l.2.1.1.1h.2l.1.1.1.1.1.1h.1l.1.1.1.1h.1l.1.1.1.1h.1l.1.1c.1 0 .1.1.1.1.1 0 .1.1.1.1h.1c.1 0 .1.1.1.1h.1l.2.1.3.1c.1 0 .1.1.1.1h.1c.1 0 .2 0 .3.1l.1.1c.1 0 .2 0 .2.1l.1.1h.2l.2.1.1.1c.1 0 .3 0 .3.1l.1.1h.3l.1.1h.1l.1.1.1.1h.1l.1.1v.1h.1l.1.1v.1h.2l.2.1v.1h.1l.1.1.1.1h.2l.2.1v.1h.3l.2.1v.1h.2l.1.1h.7l.1.1h.3l.2.1v.1h.3l.3.1v.1h.4l.2.1.1.1h.4l.1.2h1.6l.2.1v.1h1.3l.1-.1h.5l.1-.1h.2l.1-.1h.2l.1-.1h.2l.1-.1h.2c.1-.1.1-.1.3-.1h.2c0-.1.1-.1.1-.1l.1-.1h.4v-.1c.1-.1.1-.1.2-.1h.3c.1-.1.1-.1.2-.1h.3l.1-.1h.2l.1-.1h.3c0-.1.1-.1.2-.1h.2l.1-.1s0-.1.1-.1l.2-.2h.2l.1-.1h.1v-.1l.1-.1c0-.1.1-.1.1-.1l.1-.1c0-.1 0-.1.1-.2l.2-.2s.1 0 .1-.1l.1-.1v-.1s0-.2.1-.3v-.1l.1-.2v-.3l.1-.2h.1v-.3c0-.1 0-.3.1-.4v-.4c0-.1 0-.2.1-.3l.1-.1v-1.5l.1-.1v-.3l.1-.2h.1v-.3l.3-.2v-.1c0-.1 0-.2.1-.3l.1-.1h.1l.1-.1v-.1c0-.1 0-.2.1-.3l.1-.1c0-.1 0-.1.1-.2l.1-.1c0-.1 0-.1.1-.2v-.1c0-.1 0-.2.1-.3v-.7s0-.2.1-.3l.1-.1v-.6l.1-.3h.1v-.2c0-.1 0-.2.1-.3v-.1l.2-4.5-.1-.1c-.1-.1-.1-.3-.1-.3v-.1l-.1-.2c-.1-.1 0-.3 0-.3v-.5l-.1-.2v-2.4h-.1c-.1-.1-.1-.3-.1-.4v-.3h-.1l-.1-.3v-1l-.1-.1c-.1-.1-.1-.3-.1-.3v-.6l-.1-.2v-.7l-.1-.1c-.1-.1-.1-.3-.1-.4v-.5c-.1-.1-.1-.3-.1-.4l-.1-.1c-.1-.1-.1-.3-.1-.3l-.1-.2V89l-.1-.1v-.3h-.1l-.1-.3v-.4l-.1-.1-.1-.1c-.1-.1-.1-.2-.1-.2l-.1-.1v-1l-.1-.1v-.2h-.1s0-.1-.1-.1-.1-.1-.1-.1l-.2-.1v-.2c-.1-.1-.1-.2-.1-.3-.1-.1-.1-.2-.1-.3l-.1-.1-.1-.1-.1-.1c-.1-.1-.1-.2-.1-.2s0-.1-.1-.1l-.1-.1c-.1-.1-.1-.2-.1-.3l-.1-.1-.1-.1s0-.1-.1-.1l-.2-.1v-.1l-.1-.2v-.1l-.1-.1-.1-.1c-.1-.1-.1-.2-.1-.3h-.1c-.1-.1-.1-.2-.1-.3l-.1-.1c-.1-.1-.1-.2-.1-.3 0 0 0-.1-.1-.1h-.1c-.1-.1-.1-.2-.1-.3-.1-.1-.1-.2-.1-.3-.1-.1-.1-.3-.1-.4v-.1h-.1c-.1-.1-.1-.1-.1-.2l-.1-.2v-.2c-.1-.1-.1-.1-.1-.2l-.1-.2v-.2h-.1s0-.1-.1-.1l-.1-.1c-.1-.1-.1-.2-.1-.3l-.1-.1c-.1 0-.1-.1-.1-.1l-.1-.1v-.3l-.1-.1-.1-.1s0-.1-.1-.1-.1-.1-.1-.1l-.2-.1v-.2l-.2-.2-.1-.1-.1-.1-.1-.1v-.1l-.1-.1s0-.1-.1-.1l-.1-.1-.1-.1-.1-.1s0-.1-.1-.1l-.1-.1-.1-.1s0-.1-.1-.1l-.1-.1-.1-.1-.1-.1-.1-.1s0-.1-.1-.1l-.1-.1s0-.1-.1-.1l-.1-.1c-.1 0-.2 0-.2-.1l-.2-.1v-.1l-.1-.1h-.5l-.2-.2v-.1h1.4c-.1 0-.2-.1-.3-.1h-.4l-.1-.1v-.1h-.4l-.1-.1v-.1h-.4l-.1-.2h-1.6c-.1 0-.1 0-.2-.1l-.2-.1h-2.8v.1l-.1.1h-1.1c-.1.1-.1.1-.2.1h-.9l-.1.1h-.2l-.1.1-.1.1h-.1l-.1.1h-.2v.1c-.1.1-.1.1-.2.1l-.1.1h-.2l-.1.1-.1.1h-.5v.1c-.1.1-.1.1-.3.1l-.1.1s-.1.1-.3.1c0 .1-.1.1-.3.1v.1s-.1.1-.2.1l-.1.1h-.2l-.1.1h-.1l-.1.1h-.2l-.1.1-.1.1h-.8l-.4.2v-1.6l-.1-.1v-.7h-.1l-.1-.3v-.6l-.1-.2v-1.8h-.1c-.1-.1-.1-.3-.1-.4v-1.3c-.1-.1-.1-.3-.1-.5v-1.1h-.1c-.1-.1-.1-.3-.1-.3v-2.9l-.1-.1c-.1-.1-.1-.3-.1-.4v-1.6l.1-.2h.1v-.9c0-.1 0-.2.1-.3h.1v-1l.3-.1.1-.1.1-.1c.1-.1.1-.1.2-.1l.1-.1h.1v-.1l.1-.1v-.1c.1-.1.2-.1.2-.1l.1-.1h.2l.2-.1h.3l.1-.1.2-.1.8.1h.4l.2-.1h.7l.2-.1h.7l.2-.1h.6c0-.1.1-.1.2-.1h1v-.1c.1 0 .1-.1.2-.1h.6v-.1c.1-.1.1-.1.2-.1h.3c.1-.1.1-.1.2-.1h.7l.2-.1h.6l.1-.1c.1-.1.2 0 .3 0h.7l.1-.1h1.4l.1-.1.1-.1h1.3l.1-.1.1-.1h1.3l.2-.1h1.8v-.1l.1-.1h.6l.1-.1h.2v-.1l.1-.1h.2l.1-.1h.2l.1-.1h.2v-.1l.1-.1h.3l.2-.2.1-.1V56c0-.1.1-.1.3-.1l.1-.1h.1v-.1l.1-.1v-.1l.1-.1v-.1c.1-.1.1-.1.2-.1l.2-.2.1-.1c0-.1.1-.1.1-.1v-.1l.1-.1v-.1s.1 0 .1-.1.1-.1.2-.1l.1-.1h.2l.1-.1h.2l.1-.1c0-.1 0-.1.1-.2l.1-.1h.2l.1-.1.1-.1.1-.1c0-.1.1-.1.1-.1l.1-.1h.2l.1-.1h.1V53l.1-.1.1-.1.1-.1.1-.1h.2l.3.4h.1l.1-.1s.1 0 .1-.1v-.1l.1-.1v-.1s.1 0 .1-.1.1-.1.1-.1l.1-.1h.2l.1-.1.1-.1.1-.1.1-.1c0-.1 0-.1.1-.2l.2-.2h.1v-.2l.3-.2c0-.1 0-.2.1-.3h.1v-.2l.1-.1v-.3h-.1l-.1-.1c-.1 0-.1-.1-.1-.1l-.1-.1-.1-.1-.1-.1h-.1l-.2-.2-.1-.1-.1-.1-.1-.1-.1-.1-.1-.1h.1l-.1-.1s0-.1-.1-.1l-.1-.1v-.1l-.1-.1h-.2l-.1-.1v-.1l-.3-.2-.1-.1-.1-.1s0-.1-.1-.1l-.1-.1c-.1 0-.2 0-.2-.1l-.1-.1h-.1l-.1-.1v-.1h-.1l-.1-.1V47l-.4-.1-.1-.1h-.1c-.1 0-.3 0-.4-.1v-.1h-.6l-.2-.1v-.1H293l-.2-.1v-.1h-.9l-.2-.1V46h-.8l-.2-.1-.1-.1h-1l-3.4-.1h-.3c0 .1-.1.1-.1.1h-1.3l-.1.1h-.3c0 .1-.1.1-.1.1h-.3c0 .1-.1.1-.1.1h-.2c-.1.1-.1.1-.3.1l-.1.1h-.5l-.1.1-.1.1h-.2v.1l-.1.4h-.4v-.1c0 .1 0 .1-.1.1l-.1.1h-.4c0 .1-.1.1-.1.1l-.1.1h-.5v.1l-.1.1h-.2l-.1.1-.1.1h-.4c-.1.1-.1.1-.3.1v.1s-.1.1-.2.1h-.2c0 .1-.1.1-.2.1h-.2V48l-.1.1s-.1.1-.2.1h-.3l-.1.1h-.2c0 .1-.1.1-.1.1h-.4l-.1.1h-.2l-.1.1h-.1l-.1.1h-.3l-.1.1h-.4c-.1.1-.1.1-.2.1h-.4l-.1.1h-.2c-.1.1-.2.1-.4.1v.1l-.1.1h-.3l-.1.1h-.1l-.2.1h-.3l-.1.1h-.3v.1l-.1.1h-.3c-.1.1-.2.1-.4.1l-.1.1h-.4l-.2.1h-.4l-.1.1-.1.1h-.3l-.1.1h-.2l-.1.1h-.5l-.2.1h-.4l-.2.1h-.3v.1l-.1.1h-.8l-.1.1h-.2l-.1.1h-.2l-.1.1h-.5l-.2.1h-.4l-.1.1h-.1s-.1.1-.1 0v.1l-.1.1h-.3c-.1.1-.1.1-.3.1-.1.1-.1.1-.2.1v.1l-.1.1h-.3c0 .1-.1.1-.1.1l-.1.1h-.3l-.1.1h-.4l-.1.1h-.2c-.1.1-.1.1-.2.1l-.1.1h-.6l-.3.1h-.5v.1l-.1.1h-.7l-.2.1h-.4l-.2.1h-.3c0 .1-.1.1-.2.1h-.2v.1s-.1.1-.2.1h-.2l-.1.1h-.2l-.1.1h-.5l-.2.1h-.6l-.1.1-.1.1h-.2l-.1.1h-.6l-.1.1h-.3l-.1.1-.1.1h-.3l-.1.1h-.1c-.1.1-.2.1-.4.1 0 .1-.1.1-.2.1h-.3l-.1.1h-.2l-.1.1h-.2c0 .1-.1.1-.3.1-.1.1-.1.1-.2.1h-.2l-.2.2c-.1.1-.1.1-.2.1l-.1.1-.1.1h-.1v.1c-.1.1-.1.1-.2.1 0 .1-.1.1-.2.1h-.3v.1l-.1.1h-.2c0 .1-.1.1-.1.1h-.3l-.1.1-.1.1h-.2c0 .1-.1.1-.2.1h-.3l-.1.1-.1.1h-.2v.1l-.1.1h-.2v.1l-.1.1h-.3s-.1.1-.2.1v.1l-.1.1h-.3v.1s-.1.1-.2.1l-.1.1h-.4s-.1.1-.2.1h-.5v.1c-.1 0-.1.1-.2.1h-.6l-.1.1-1.3.3zm27.7 27.4v-.3c0-.2 0-.4.1-.5v-.3l.1-.2h.1v-.1c0-.1 0-.3.1-.4 0-.1 0-.2.1-.3v-.2c0-.1 0-.2.1-.3l.1-.1.1-.1.1-.1c0-.1 0-.2.1-.3l.1-.1c.1-.1.1-.1.2-.1l.1-.1.1-.1.1-.1h.1v-.1c.1-.1.2-.1.3-.1l.1-.1h.2l.2-.1c.1-.1.1-.1.2-.1v-.1l.2-.2h.2l.1-.1.1-.1h.2l.1-.1s.1-.1.2-.1h.3c0-.1.1-.1.1-.2l.1-.1h.2l.1-.1h.2l.1-.1h2c.1 0 .3 0 .4.1h.5l.2.1h.1c.1 0 .1.1.1.1h.3l.2.1h.1l.2.1h.1l.2.1h.3c.1 0 .1.1.1.1h.2l.1.1c.1 0 .1.1.1.1.1 0 .2.1.3.1v.1h.1l.1.1.1.1.1.1h.1l.2.1s.1 0 .1.1l.1.2.1.1c.1 0 .2 0 .3.1.1.1.1.2.1.3v.1h.1l.2.1c.1.1.1.2.1.2l.1.1.1.1h.1l.1.2v.2l.1.1.1.1v.1l.1.2c0 .1.1.1.1.2l.1.1.1.1c.1.1.1.2.1.3h.1c.1.1.1.2.1.3h.1v.1h.1l.1.2v.1h.1l.1.3v.2l.1.1v.1l.1.1c.1.1.1.2.1.2l.1.1c.1.1.1.2 0 .3l.1.3v.4c.1.1.1.1.1.2l.1.3v.4l.1.3v.3c.1.1.1.2.1.4v1.8s0 .2-.1.3l-.1.1v.6s0 .2-.1.3l-.1.1v.7s0 .2-.1.3l-.1.1v.4l-.1.3h-.1v.2c0 .1 0 .2-.1.3l-.1.1v.7l-.1.2h-.1v.5s0 .2-.1.3h-.1v.7s0 .2-.1.3l-.1.1v.4l-.1.2h-.1c0 .1 0 .2-.1.3l-.1.1v.3l-.1.2c0 .1 0 .1-.1.2l-.1.1v.3l-.1.2h-.1c0 .1 0 .2-.1.3l-.2.1v.1c0 .1 0 .2-.1.3l-.2.1h-.1v.3l-.1.2h-.1c0 .1 0 .3-.1.4v.2l-.1.2v.1l-.1.2c0 .1 0 .1-.1.2 0 .1 0 .1-.1.2l-.1.1h-.1v.1l-.1.1v.1c0 .1 0 .2-.1.3l-.1.1h-.1c0 .1 0 .2-.1.3l-.1.1-.1.1v.1h-.1c0 .1 0 .2-.1.3l-.2.1s-.1.1-.3.1l-.2.2h-.1l-.1.1c-.1.1-.1.1-.2.1l-.1.1h-.2l-.1.1h-.6l-.2.1h-.6l-.1.1c-.1 0-.1.1-.2.1h-.6l-.1.1c-.1 0-.1.1-.2.1h-1.5.1l-.1-.1-.1-.1-.1-.1v-.1c-.1 0-.2-.1-.3-.1v-.1h-.1l-.1-.1-.1-.1-.1-.1-.1-.1h-.2l-.2-.1-.1-.1v-.1h-.1l-.1-.1h-.1l-.2-.1s-.1 0-.1-.1l-.1-.2h-.3l-.4-.3v-.1l-.1-.1-.1-.1h-.1c-.1 0-.1-.1-.2-.2h-.1l-.1-.1-.1-.1s0-.1-.1-.1l-.2-.1v-1l.1-.2h.1l.2-5.9v-.6h-.1l-.1-.3v-.7c-.1-.1-.1-.3-.1-.4v-.3l-.1-.2v-.4c-.1-.1-.1-.3-.1-.4v-.3h-.1c-.1-.1-.1-.3-.1-.4v-.7h-.1l-.1-.1v-.1c0-.1 0-.3.1-.4l.1-.1v-.1c0-.5 0-1 .1-1.5v-.3h-.1c-.1-.1-.1-.3-.1-.4V88l-.1-.1.2-2.2zm-9.3-19.1l.1-.1c0-.1 0-.2.1-.3l.1-.1h.2l.1-.1v-.4l.4.3h.1l.1.1c.1.1.1.3.1.4v2h.1l.1.3v.6l.1.1c.1.1.1.3.1.3v.5l.1.1c.1.1.1.2.1.3v1.6l-.1.3h-.1v.8s0 .2-.1.3l-.1.1v2.5h-.1v2.6h-.7c0 .1 0 .2-.1.2 0 .1 0 .2-.1.3l-.1.1c0 .1 0 .2-.1.3l-.1.1h-.1c0 .1 0 .2-.1.2h-.3l-.1.1v.1c-.1.1-.1.1-.3.1v.1l-.2.1-.1.1v.1c-.1.1-.1.1-.2.1 0 0 0 .1-.1.1h-.1l-.2.1h-.1c-.1.1-.1.1-.2.1h-.4l-.1.1h-.2v.1l-.1.1h-.2l-.1.1h-.2c-.1.1-.2.1-.4.1h-.2l-.1.1h-.2l-.1.1-.1.1h-.1l-.1.1-.1.1c-.1.1-.2.1-.4.1h-.1l-.1.1-.1.1c-.1 0-.1.1-.2.1h-.2v.1l-.1.1v.1s-.1 0-.1.1v.1s-.1.1-.2.1h-.2l-.1.1h-.2l-.1.1-.1.1h-.2l-.1.1h-.2c0 .1-.1.1-.2.1h-.3c-.1.1-.2.1-.2.1h-.4l-.1.1h-1.5v-.6l-.1-.2v-1.5c0-.1 0-.2.1-.3l.1-.1V81s0-.2.1-.3v-.1s0-.2.1-.3v-.1s0-.2.1-.3c0-.1 0-.2.1-.3v-.2l.1-.2v-.3l.1-.2c0-.1 0-.1.1-.2 0-.1 0-.1.1-.2l.1-.1h.1l.1-.1v-.3l.1-.2v-.3l.1-.2c0-.1 0-.1.1-.2l.1-.1v-.1l.1-.2v-.3l.1-.2c0-.1 0-.1.1-.2h.1v-.1l.1-.2c0-.1 0-.1.1-.2v-.1c0-.1 0-.2.1-.3l.2-.1h.1v-.3l.1-.2h.1v-.1l.1-.2c0-.1 0-.1.1-.2l.2-.1.1-.1v-.1l.1-.1.1-.1v-.2l.1-.2h.1l.1-.1c0-.1 0-.2.1-.3l.2-.1.1-.1v-.1c0-.1 0-.2.1-.3l.1-.1s.1 0 .1-.1v-.1l.1-.1.1-.1c0-.1 0-.2.1-.3l.1-.1s.1 0 .1-.1v-.1h.1c0-.1 0-.2.1-.3l.2-.1.1-.1v-.1l.1-.1V70l.1-.1v-.1c0-.1 0-.2.1-.3l.1-.1.1-.1v-.1l.1-.1.1-.1h.1v-.1l.1-.1v-.1l.1-.1.1-.1c0-.1 0-.2.1-.3l.1-.1s.1 0 .1-.1v-.1l.1-.1v-.1l.1-.1v-.1h.1v-.2l.1-.2h.1l.1-.1v-.1l.1-.1v-.1l.1-.1v-.1l.1-.1v-.1l.1-.1v-.1l.1-.1v-.1l2 .7c-.1 0 0 0 0 0zM291.5 46zm-19 23.7z"/></svg>